M48
; DRILL file {KiCad (7.0.0)} date Fri Apr 14 19:10:39 2023
; FORMAT={-:-/ absolute / inch / decimal}
; #@! TF.CreationDate,2023-04-14T19:10:39+02:00
; #@! TF.GenerationSoftware,Kicad,Pcbnew,(7.0.0)
; #@! TF.FileFunction,Plated,1,2,PTH
FMAT,2
INCH
; #@! TA.AperFunction,Plated,PTH,ViaDrill
T1C0.0157
; #@! TA.AperFunction,Plated,PTH,ComponentDrill
T2C0.0197
; #@! TA.AperFunction,Plated,PTH,ComponentDrill
T3C0.0276
; #@! TA.AperFunction,Plated,PTH,ComponentDrill
T4C0.0394
%
G90
G05
T1
X4.0846Y-3.4744
X4.27Y-3.93
X4.32Y-4.16
X4.35Y-3.93
X4.3996Y-3.0709
X4.4Y-3.38
X4.4094Y-3.7992
X4.41Y-3.93
X4.439Y-4.1535
X4.5374Y-4.1535
X4.6094Y-3.55
X4.6161Y-4.7244
X4.626Y-5.1772
X4.685Y-3.3071
X4.73Y-3.09
X4.7736Y-4.8819
X4.8819Y-2.9331
X5.6693Y-3.0413
X5.6693Y-3.1496
X5.9Y-4.8819
X5.9921Y-3.5354
X5.9941Y-3.2205
X5.9941Y-3.4252
X6.02Y-4.61
X6.12Y-5.06
X6.1516Y-3.4843
X6.2205Y-3.878
X6.31Y-3.83
X6.311Y-3.5512
X6.36Y-4.64
X6.37Y-3.78
X6.39Y-4.26
X6.4272Y-3.6319
X6.45Y-4.83
X6.4567Y-3.4843
X6.51Y-4.57
X6.51Y-4.96
X6.61Y-3.42
X6.61Y-3.55
X6.62Y-4.21
X6.62Y-4.89
X6.68Y-4.48
X6.6929Y-4.7638
X6.7Y-3.0
X6.7047Y-4.1047
X6.73Y-4.16
X6.75Y-4.41
X6.752Y-3.99
X6.78Y-4.21
X6.79Y-4.37
X6.83Y-4.32
X6.87Y-4.28
X6.88Y-4.09
X6.88Y-4.5236
X6.89Y-4.43
T3
X4.1106Y-5.0315
X4.1106Y-5.2224
T4
X5.18Y-3.09
X5.18Y-3.19
X5.18Y-3.29
X5.18Y-3.39
X5.18Y-3.49
X5.18Y-3.59
X5.18Y-3.69
X5.18Y-3.79
X5.18Y-3.89
X5.18Y-3.99
X5.18Y-4.09
X5.18Y-4.19
X5.18Y-4.29
X5.18Y-4.39
X5.18Y-4.49
X5.18Y-4.59
X5.18Y-4.69
X5.18Y-4.79
X5.18Y-4.89
X5.18Y-4.99
X5.18Y-5.09
X5.18Y-5.19
X5.18Y-5.29
X5.18Y-5.39
X5.81Y-3.09
X5.81Y-3.19
X5.81Y-3.29
X5.81Y-3.39
X5.81Y-3.49
X5.81Y-3.59
X5.81Y-3.69
X5.81Y-3.79
X5.81Y-3.89
X5.81Y-3.99
X5.81Y-4.09
X5.81Y-4.19
X5.81Y-4.29
X5.81Y-4.39
X5.81Y-4.49
X5.81Y-4.59
X5.81Y-4.69
X5.81Y-4.79
X5.81Y-4.89
X5.81Y-4.99
X5.81Y-5.09
X5.81Y-5.19
X5.81Y-5.29
X5.81Y-5.39
T2
G00X3.9906Y-4.9852
M15
G01X4.022Y-4.9852
M16
G05
G00X3.9906Y-5.2687
M15
G01X4.022Y-5.2687
M16
G05
T0
M30
