%TF.GenerationSoftware,KiCad,Pcbnew,(7.0.0)*%
%TF.CreationDate,2023-04-14T19:10:39+02:00*%
%TF.ProjectId,Project.kicad_sch,50726f6a-6563-4742-9e6b-696361645f73,rev?*%
%TF.SameCoordinates,Original*%
%TF.FileFunction,Legend,Bot*%
%TF.FilePolarity,Positive*%
%FSLAX46Y46*%
G04 Gerber Fmt 4.6, Leading zero omitted, Abs format (unit mm)*
G04 Created by KiCad (PCBNEW (7.0.0)) date 2023-04-14 19:10:39*
%MOMM*%
%LPD*%
G01*
G04 APERTURE LIST*
%ADD10R,1.700000X1.700000*%
%ADD11O,1.700000X1.700000*%
%ADD12C,1.300000*%
%ADD13O,2.140000X1.070000*%
G04 APERTURE END LIST*
%LPC*%
D10*
%TO.C,J2*%
X131571999Y-78485999D03*
D11*
X131571999Y-81025999D03*
X131571999Y-83565999D03*
X131571999Y-86105999D03*
X131571999Y-88645999D03*
X131571999Y-91185999D03*
X131571999Y-93725999D03*
X131571999Y-96265999D03*
X131571999Y-98805999D03*
X131571999Y-101345999D03*
X131571999Y-103885999D03*
X131571999Y-106425999D03*
X131571999Y-108965999D03*
X131571999Y-111505999D03*
X131571999Y-114045999D03*
X131571999Y-116585999D03*
X131571999Y-119125999D03*
X131571999Y-121665999D03*
X131571999Y-124205999D03*
X131571999Y-126745999D03*
X131571999Y-129285999D03*
X131571999Y-131825999D03*
X131571999Y-134365999D03*
X131571999Y-136905999D03*
%TD*%
D12*
%TO.C,J1*%
X104410000Y-132650000D03*
D13*
X101759999Y-133824999D03*
D12*
X104410000Y-127800000D03*
D13*
X101759999Y-126624999D03*
%TD*%
D10*
%TO.C,J3*%
X147573999Y-78485999D03*
D11*
X147573999Y-81025999D03*
X147573999Y-83565999D03*
X147573999Y-86105999D03*
X147573999Y-88645999D03*
X147573999Y-91185999D03*
X147573999Y-93725999D03*
X147573999Y-96265999D03*
X147573999Y-98805999D03*
X147573999Y-101345999D03*
X147573999Y-103885999D03*
X147573999Y-106425999D03*
X147573999Y-108965999D03*
X147573999Y-111505999D03*
X147573999Y-114045999D03*
X147573999Y-116585999D03*
X147573999Y-119125999D03*
X147573999Y-121665999D03*
X147573999Y-124205999D03*
X147573999Y-126745999D03*
X147573999Y-129285999D03*
X147573999Y-131825999D03*
X147573999Y-134365999D03*
X147573999Y-136905999D03*
%TD*%
M02*
