%TF.GenerationSoftware,KiCad,Pcbnew,(7.0.0)*%
%TF.CreationDate,2023-04-14T19:10:38+02:00*%
%TF.ProjectId,Project.kicad_sch,50726f6a-6563-4742-9e6b-696361645f73,rev?*%
%TF.SameCoordinates,Original*%
%TF.FileFunction,Legend,Top*%
%TF.FilePolarity,Positive*%
%FSLAX46Y46*%
G04 Gerber Fmt 4.6, Leading zero omitted, Abs format (unit mm)*
G04 Created by KiCad (PCBNEW (7.0.0)) date 2023-04-14 19:10:38*
%MOMM*%
%LPD*%
G01*
G04 APERTURE LIST*
G04 Aperture macros list*
%AMRoundRect*
0 Rectangle with rounded corners*
0 $1 Rounding radius*
0 $2 $3 $4 $5 $6 $7 $8 $9 X,Y pos of 4 corners*
0 Add a 4 corners polygon primitive as box body*
4,1,4,$2,$3,$4,$5,$6,$7,$8,$9,$2,$3,0*
0 Add four circle primitives for the rounded corners*
1,1,$1+$1,$2,$3*
1,1,$1+$1,$4,$5*
1,1,$1+$1,$6,$7*
1,1,$1+$1,$8,$9*
0 Add four rect primitives between the rounded corners*
20,1,$1+$1,$2,$3,$4,$5,0*
20,1,$1+$1,$4,$5,$6,$7,0*
20,1,$1+$1,$6,$7,$8,$9,0*
20,1,$1+$1,$8,$9,$2,$3,0*%
%AMFreePoly0*
4,1,9,3.862500,-0.866500,0.737500,-0.866500,0.737500,-0.450000,-0.737500,-0.450000,-0.737500,0.450000,0.737500,0.450000,0.737500,0.866500,3.862500,0.866500,3.862500,-0.866500,3.862500,-0.866500,$1*%
G04 Aperture macros list end*
%ADD10C,0.150000*%
%ADD11C,0.120000*%
%ADD12C,0.127000*%
%ADD13C,0.200000*%
%ADD14C,0.500000*%
%ADD15C,1.000000*%
%ADD16RoundRect,0.100000X0.130000X0.100000X-0.130000X0.100000X-0.130000X-0.100000X0.130000X-0.100000X0*%
%ADD17RoundRect,0.150000X-0.587500X-0.150000X0.587500X-0.150000X0.587500X0.150000X-0.587500X0.150000X0*%
%ADD18RoundRect,0.150000X0.150000X-0.512500X0.150000X0.512500X-0.150000X0.512500X-0.150000X-0.512500X0*%
%ADD19RoundRect,0.100000X-0.100000X0.130000X-0.100000X-0.130000X0.100000X-0.130000X0.100000X0.130000X0*%
%ADD20RoundRect,0.135000X0.135000X0.185000X-0.135000X0.185000X-0.135000X-0.185000X0.135000X-0.185000X0*%
%ADD21RoundRect,0.225000X-0.225000X-0.250000X0.225000X-0.250000X0.225000X0.250000X-0.225000X0.250000X0*%
%ADD22RoundRect,0.250000X0.312500X0.625000X-0.312500X0.625000X-0.312500X-0.625000X0.312500X-0.625000X0*%
%ADD23RoundRect,0.200000X-0.200000X-0.275000X0.200000X-0.275000X0.200000X0.275000X-0.200000X0.275000X0*%
%ADD24R,1.700000X1.700000*%
%ADD25O,1.700000X1.700000*%
%ADD26R,1.250000X0.400000*%
%ADD27C,1.300000*%
%ADD28O,2.140000X1.070000*%
%ADD29RoundRect,0.135000X-0.135000X-0.185000X0.135000X-0.185000X0.135000X0.185000X-0.135000X0.185000X0*%
%ADD30RoundRect,0.250000X1.000000X0.650000X-1.000000X0.650000X-1.000000X-0.650000X1.000000X-0.650000X0*%
%ADD31RoundRect,0.735000X-3.150000X-2.940000X3.150000X-2.940000X3.150000X2.940000X-3.150000X2.940000X0*%
%ADD32R,0.900000X1.300000*%
%ADD33FreePoly0,90.000000*%
%ADD34RoundRect,0.150000X-0.150000X0.587500X-0.150000X-0.587500X0.150000X-0.587500X0.150000X0.587500X0*%
%ADD35RoundRect,0.150000X0.150000X-0.587500X0.150000X0.587500X-0.150000X0.587500X-0.150000X-0.587500X0*%
%ADD36R,1.700000X0.650000*%
%ADD37RoundRect,0.200000X0.275000X-0.200000X0.275000X0.200000X-0.275000X0.200000X-0.275000X-0.200000X0*%
%ADD38RoundRect,0.250000X-0.287500X-0.275000X0.287500X-0.275000X0.287500X0.275000X-0.287500X0.275000X0*%
%ADD39R,0.675000X0.575000*%
%ADD40R,0.710000X0.575000*%
%ADD41R,2.225000X0.550000*%
%ADD42R,0.400000X0.600000*%
%ADD43R,2.400000X1.500000*%
%ADD44RoundRect,0.250000X-0.700000X0.275000X-0.700000X-0.275000X0.700000X-0.275000X0.700000X0.275000X0*%
%ADD45RoundRect,0.250000X-0.262500X-0.450000X0.262500X-0.450000X0.262500X0.450000X-0.262500X0.450000X0*%
%ADD46R,1.400000X0.300000*%
G04 APERTURE END LIST*
D10*
X174238095Y-132158571D02*
X174571428Y-132158571D01*
X174714285Y-132682380D02*
X174238095Y-132682380D01*
X174238095Y-132682380D02*
X174238095Y-131682380D01*
X174238095Y-131682380D02*
X174714285Y-131682380D01*
X175142857Y-132158571D02*
X175476190Y-132158571D01*
X175619047Y-132682380D02*
X175142857Y-132682380D01*
X175142857Y-132682380D02*
X175142857Y-131682380D01*
X175142857Y-131682380D02*
X175619047Y-131682380D01*
X176047619Y-132158571D02*
X176380952Y-132158571D01*
X176523809Y-132682380D02*
X176047619Y-132682380D01*
X176047619Y-132682380D02*
X176047619Y-131682380D01*
X176047619Y-131682380D02*
X176523809Y-131682380D01*
X176857143Y-131682380D02*
X177476190Y-131682380D01*
X177476190Y-131682380D02*
X177142857Y-132063333D01*
X177142857Y-132063333D02*
X177285714Y-132063333D01*
X177285714Y-132063333D02*
X177380952Y-132110952D01*
X177380952Y-132110952D02*
X177428571Y-132158571D01*
X177428571Y-132158571D02*
X177476190Y-132253809D01*
X177476190Y-132253809D02*
X177476190Y-132491904D01*
X177476190Y-132491904D02*
X177428571Y-132587142D01*
X177428571Y-132587142D02*
X177380952Y-132634761D01*
X177380952Y-132634761D02*
X177285714Y-132682380D01*
X177285714Y-132682380D02*
X177000000Y-132682380D01*
X177000000Y-132682380D02*
X176904762Y-132634761D01*
X176904762Y-132634761D02*
X176857143Y-132587142D01*
X178095238Y-131682380D02*
X178190476Y-131682380D01*
X178190476Y-131682380D02*
X178285714Y-131730000D01*
X178285714Y-131730000D02*
X178333333Y-131777619D01*
X178333333Y-131777619D02*
X178380952Y-131872857D01*
X178380952Y-131872857D02*
X178428571Y-132063333D01*
X178428571Y-132063333D02*
X178428571Y-132301428D01*
X178428571Y-132301428D02*
X178380952Y-132491904D01*
X178380952Y-132491904D02*
X178333333Y-132587142D01*
X178333333Y-132587142D02*
X178285714Y-132634761D01*
X178285714Y-132634761D02*
X178190476Y-132682380D01*
X178190476Y-132682380D02*
X178095238Y-132682380D01*
X178095238Y-132682380D02*
X178000000Y-132634761D01*
X178000000Y-132634761D02*
X177952381Y-132587142D01*
X177952381Y-132587142D02*
X177904762Y-132491904D01*
X177904762Y-132491904D02*
X177857143Y-132301428D01*
X177857143Y-132301428D02*
X177857143Y-132063333D01*
X177857143Y-132063333D02*
X177904762Y-131872857D01*
X177904762Y-131872857D02*
X177952381Y-131777619D01*
X177952381Y-131777619D02*
X178000000Y-131730000D01*
X178000000Y-131730000D02*
X178095238Y-131682380D01*
X179000000Y-132110952D02*
X178904762Y-132063333D01*
X178904762Y-132063333D02*
X178857143Y-132015714D01*
X178857143Y-132015714D02*
X178809524Y-131920476D01*
X178809524Y-131920476D02*
X178809524Y-131872857D01*
X178809524Y-131872857D02*
X178857143Y-131777619D01*
X178857143Y-131777619D02*
X178904762Y-131730000D01*
X178904762Y-131730000D02*
X179000000Y-131682380D01*
X179000000Y-131682380D02*
X179190476Y-131682380D01*
X179190476Y-131682380D02*
X179285714Y-131730000D01*
X179285714Y-131730000D02*
X179333333Y-131777619D01*
X179333333Y-131777619D02*
X179380952Y-131872857D01*
X179380952Y-131872857D02*
X179380952Y-131920476D01*
X179380952Y-131920476D02*
X179333333Y-132015714D01*
X179333333Y-132015714D02*
X179285714Y-132063333D01*
X179285714Y-132063333D02*
X179190476Y-132110952D01*
X179190476Y-132110952D02*
X179000000Y-132110952D01*
X179000000Y-132110952D02*
X178904762Y-132158571D01*
X178904762Y-132158571D02*
X178857143Y-132206190D01*
X178857143Y-132206190D02*
X178809524Y-132301428D01*
X178809524Y-132301428D02*
X178809524Y-132491904D01*
X178809524Y-132491904D02*
X178857143Y-132587142D01*
X178857143Y-132587142D02*
X178904762Y-132634761D01*
X178904762Y-132634761D02*
X179000000Y-132682380D01*
X179000000Y-132682380D02*
X179190476Y-132682380D01*
X179190476Y-132682380D02*
X179285714Y-132634761D01*
X179285714Y-132634761D02*
X179333333Y-132587142D01*
X179333333Y-132587142D02*
X179380952Y-132491904D01*
X179380952Y-132491904D02*
X179380952Y-132301428D01*
X179380952Y-132301428D02*
X179333333Y-132206190D01*
X179333333Y-132206190D02*
X179285714Y-132158571D01*
X179285714Y-132158571D02*
X179190476Y-132110952D01*
X179952381Y-132110952D02*
X179857143Y-132063333D01*
X179857143Y-132063333D02*
X179809524Y-132015714D01*
X179809524Y-132015714D02*
X179761905Y-131920476D01*
X179761905Y-131920476D02*
X179761905Y-131872857D01*
X179761905Y-131872857D02*
X179809524Y-131777619D01*
X179809524Y-131777619D02*
X179857143Y-131730000D01*
X179857143Y-131730000D02*
X179952381Y-131682380D01*
X179952381Y-131682380D02*
X180142857Y-131682380D01*
X180142857Y-131682380D02*
X180238095Y-131730000D01*
X180238095Y-131730000D02*
X180285714Y-131777619D01*
X180285714Y-131777619D02*
X180333333Y-131872857D01*
X180333333Y-131872857D02*
X180333333Y-131920476D01*
X180333333Y-131920476D02*
X180285714Y-132015714D01*
X180285714Y-132015714D02*
X180238095Y-132063333D01*
X180238095Y-132063333D02*
X180142857Y-132110952D01*
X180142857Y-132110952D02*
X179952381Y-132110952D01*
X179952381Y-132110952D02*
X179857143Y-132158571D01*
X179857143Y-132158571D02*
X179809524Y-132206190D01*
X179809524Y-132206190D02*
X179761905Y-132301428D01*
X179761905Y-132301428D02*
X179761905Y-132491904D01*
X179761905Y-132491904D02*
X179809524Y-132587142D01*
X179809524Y-132587142D02*
X179857143Y-132634761D01*
X179857143Y-132634761D02*
X179952381Y-132682380D01*
X179952381Y-132682380D02*
X180142857Y-132682380D01*
X180142857Y-132682380D02*
X180238095Y-132634761D01*
X180238095Y-132634761D02*
X180285714Y-132587142D01*
X180285714Y-132587142D02*
X180333333Y-132491904D01*
X180333333Y-132491904D02*
X180333333Y-132301428D01*
X180333333Y-132301428D02*
X180285714Y-132206190D01*
X180285714Y-132206190D02*
X180238095Y-132158571D01*
X180238095Y-132158571D02*
X180142857Y-132110952D01*
X181095238Y-132158571D02*
X180761905Y-132158571D01*
X180761905Y-132682380D02*
X180761905Y-131682380D01*
X180761905Y-131682380D02*
X181238095Y-131682380D01*
X182171429Y-131777619D02*
X182219048Y-131730000D01*
X182219048Y-131730000D02*
X182314286Y-131682380D01*
X182314286Y-131682380D02*
X182552381Y-131682380D01*
X182552381Y-131682380D02*
X182647619Y-131730000D01*
X182647619Y-131730000D02*
X182695238Y-131777619D01*
X182695238Y-131777619D02*
X182742857Y-131872857D01*
X182742857Y-131872857D02*
X182742857Y-131968095D01*
X182742857Y-131968095D02*
X182695238Y-132110952D01*
X182695238Y-132110952D02*
X182123810Y-132682380D01*
X182123810Y-132682380D02*
X182742857Y-132682380D01*
X183361905Y-131682380D02*
X183457143Y-131682380D01*
X183457143Y-131682380D02*
X183552381Y-131730000D01*
X183552381Y-131730000D02*
X183600000Y-131777619D01*
X183600000Y-131777619D02*
X183647619Y-131872857D01*
X183647619Y-131872857D02*
X183695238Y-132063333D01*
X183695238Y-132063333D02*
X183695238Y-132301428D01*
X183695238Y-132301428D02*
X183647619Y-132491904D01*
X183647619Y-132491904D02*
X183600000Y-132587142D01*
X183600000Y-132587142D02*
X183552381Y-132634761D01*
X183552381Y-132634761D02*
X183457143Y-132682380D01*
X183457143Y-132682380D02*
X183361905Y-132682380D01*
X183361905Y-132682380D02*
X183266667Y-132634761D01*
X183266667Y-132634761D02*
X183219048Y-132587142D01*
X183219048Y-132587142D02*
X183171429Y-132491904D01*
X183171429Y-132491904D02*
X183123810Y-132301428D01*
X183123810Y-132301428D02*
X183123810Y-132063333D01*
X183123810Y-132063333D02*
X183171429Y-131872857D01*
X183171429Y-131872857D02*
X183219048Y-131777619D01*
X183219048Y-131777619D02*
X183266667Y-131730000D01*
X183266667Y-131730000D02*
X183361905Y-131682380D01*
X184076191Y-131777619D02*
X184123810Y-131730000D01*
X184123810Y-131730000D02*
X184219048Y-131682380D01*
X184219048Y-131682380D02*
X184457143Y-131682380D01*
X184457143Y-131682380D02*
X184552381Y-131730000D01*
X184552381Y-131730000D02*
X184600000Y-131777619D01*
X184600000Y-131777619D02*
X184647619Y-131872857D01*
X184647619Y-131872857D02*
X184647619Y-131968095D01*
X184647619Y-131968095D02*
X184600000Y-132110952D01*
X184600000Y-132110952D02*
X184028572Y-132682380D01*
X184028572Y-132682380D02*
X184647619Y-132682380D01*
X184980953Y-131682380D02*
X185600000Y-131682380D01*
X185600000Y-131682380D02*
X185266667Y-132063333D01*
X185266667Y-132063333D02*
X185409524Y-132063333D01*
X185409524Y-132063333D02*
X185504762Y-132110952D01*
X185504762Y-132110952D02*
X185552381Y-132158571D01*
X185552381Y-132158571D02*
X185600000Y-132253809D01*
X185600000Y-132253809D02*
X185600000Y-132491904D01*
X185600000Y-132491904D02*
X185552381Y-132587142D01*
X185552381Y-132587142D02*
X185504762Y-132634761D01*
X185504762Y-132634761D02*
X185409524Y-132682380D01*
X185409524Y-132682380D02*
X185123810Y-132682380D01*
X185123810Y-132682380D02*
X185028572Y-132634761D01*
X185028572Y-132634761D02*
X184980953Y-132587142D01*
X174761904Y-133350000D02*
X174666666Y-133302380D01*
X174666666Y-133302380D02*
X174523809Y-133302380D01*
X174523809Y-133302380D02*
X174380952Y-133350000D01*
X174380952Y-133350000D02*
X174285714Y-133445238D01*
X174285714Y-133445238D02*
X174238095Y-133540476D01*
X174238095Y-133540476D02*
X174190476Y-133730952D01*
X174190476Y-133730952D02*
X174190476Y-133873809D01*
X174190476Y-133873809D02*
X174238095Y-134064285D01*
X174238095Y-134064285D02*
X174285714Y-134159523D01*
X174285714Y-134159523D02*
X174380952Y-134254761D01*
X174380952Y-134254761D02*
X174523809Y-134302380D01*
X174523809Y-134302380D02*
X174619047Y-134302380D01*
X174619047Y-134302380D02*
X174761904Y-134254761D01*
X174761904Y-134254761D02*
X174809523Y-134207142D01*
X174809523Y-134207142D02*
X174809523Y-133873809D01*
X174809523Y-133873809D02*
X174619047Y-133873809D01*
X175238095Y-134302380D02*
X175238095Y-133635714D01*
X175238095Y-133826190D02*
X175285714Y-133730952D01*
X175285714Y-133730952D02*
X175333333Y-133683333D01*
X175333333Y-133683333D02*
X175428571Y-133635714D01*
X175428571Y-133635714D02*
X175523809Y-133635714D01*
X176000000Y-134302380D02*
X175904762Y-134254761D01*
X175904762Y-134254761D02*
X175857143Y-134207142D01*
X175857143Y-134207142D02*
X175809524Y-134111904D01*
X175809524Y-134111904D02*
X175809524Y-133826190D01*
X175809524Y-133826190D02*
X175857143Y-133730952D01*
X175857143Y-133730952D02*
X175904762Y-133683333D01*
X175904762Y-133683333D02*
X176000000Y-133635714D01*
X176000000Y-133635714D02*
X176142857Y-133635714D01*
X176142857Y-133635714D02*
X176238095Y-133683333D01*
X176238095Y-133683333D02*
X176285714Y-133730952D01*
X176285714Y-133730952D02*
X176333333Y-133826190D01*
X176333333Y-133826190D02*
X176333333Y-134111904D01*
X176333333Y-134111904D02*
X176285714Y-134207142D01*
X176285714Y-134207142D02*
X176238095Y-134254761D01*
X176238095Y-134254761D02*
X176142857Y-134302380D01*
X176142857Y-134302380D02*
X176000000Y-134302380D01*
X177190476Y-133635714D02*
X177190476Y-134302380D01*
X176761905Y-133635714D02*
X176761905Y-134159523D01*
X176761905Y-134159523D02*
X176809524Y-134254761D01*
X176809524Y-134254761D02*
X176904762Y-134302380D01*
X176904762Y-134302380D02*
X177047619Y-134302380D01*
X177047619Y-134302380D02*
X177142857Y-134254761D01*
X177142857Y-134254761D02*
X177190476Y-134207142D01*
X177666667Y-133635714D02*
X177666667Y-134635714D01*
X177666667Y-133683333D02*
X177761905Y-133635714D01*
X177761905Y-133635714D02*
X177952381Y-133635714D01*
X177952381Y-133635714D02*
X178047619Y-133683333D01*
X178047619Y-133683333D02*
X178095238Y-133730952D01*
X178095238Y-133730952D02*
X178142857Y-133826190D01*
X178142857Y-133826190D02*
X178142857Y-134111904D01*
X178142857Y-134111904D02*
X178095238Y-134207142D01*
X178095238Y-134207142D02*
X178047619Y-134254761D01*
X178047619Y-134254761D02*
X177952381Y-134302380D01*
X177952381Y-134302380D02*
X177761905Y-134302380D01*
X177761905Y-134302380D02*
X177666667Y-134254761D01*
X179123810Y-133397619D02*
X179171429Y-133350000D01*
X179171429Y-133350000D02*
X179266667Y-133302380D01*
X179266667Y-133302380D02*
X179504762Y-133302380D01*
X179504762Y-133302380D02*
X179600000Y-133350000D01*
X179600000Y-133350000D02*
X179647619Y-133397619D01*
X179647619Y-133397619D02*
X179695238Y-133492857D01*
X179695238Y-133492857D02*
X179695238Y-133588095D01*
X179695238Y-133588095D02*
X179647619Y-133730952D01*
X179647619Y-133730952D02*
X179076191Y-134302380D01*
X179076191Y-134302380D02*
X179695238Y-134302380D01*
X180647619Y-134302380D02*
X180076191Y-134302380D01*
X180361905Y-134302380D02*
X180361905Y-133302380D01*
X180361905Y-133302380D02*
X180266667Y-133445238D01*
X180266667Y-133445238D02*
X180171429Y-133540476D01*
X180171429Y-133540476D02*
X180076191Y-133588095D01*
X174571428Y-137018571D02*
X174714285Y-137066190D01*
X174714285Y-137066190D02*
X174761904Y-137113809D01*
X174761904Y-137113809D02*
X174809523Y-137209047D01*
X174809523Y-137209047D02*
X174809523Y-137351904D01*
X174809523Y-137351904D02*
X174761904Y-137447142D01*
X174761904Y-137447142D02*
X174714285Y-137494761D01*
X174714285Y-137494761D02*
X174619047Y-137542380D01*
X174619047Y-137542380D02*
X174238095Y-137542380D01*
X174238095Y-137542380D02*
X174238095Y-136542380D01*
X174238095Y-136542380D02*
X174571428Y-136542380D01*
X174571428Y-136542380D02*
X174666666Y-136590000D01*
X174666666Y-136590000D02*
X174714285Y-136637619D01*
X174714285Y-136637619D02*
X174761904Y-136732857D01*
X174761904Y-136732857D02*
X174761904Y-136828095D01*
X174761904Y-136828095D02*
X174714285Y-136923333D01*
X174714285Y-136923333D02*
X174666666Y-136970952D01*
X174666666Y-136970952D02*
X174571428Y-137018571D01*
X174571428Y-137018571D02*
X174238095Y-137018571D01*
X175428571Y-137066190D02*
X175428571Y-137542380D01*
X175095238Y-136542380D02*
X175428571Y-137066190D01*
X175428571Y-137066190D02*
X175761904Y-136542380D01*
X176571428Y-137542380D02*
X176095238Y-137542380D01*
X176095238Y-137542380D02*
X176095238Y-136542380D01*
X176857143Y-137494761D02*
X177000000Y-137542380D01*
X177000000Y-137542380D02*
X177238095Y-137542380D01*
X177238095Y-137542380D02*
X177333333Y-137494761D01*
X177333333Y-137494761D02*
X177380952Y-137447142D01*
X177380952Y-137447142D02*
X177428571Y-137351904D01*
X177428571Y-137351904D02*
X177428571Y-137256666D01*
X177428571Y-137256666D02*
X177380952Y-137161428D01*
X177380952Y-137161428D02*
X177333333Y-137113809D01*
X177333333Y-137113809D02*
X177238095Y-137066190D01*
X177238095Y-137066190D02*
X177047619Y-137018571D01*
X177047619Y-137018571D02*
X176952381Y-136970952D01*
X176952381Y-136970952D02*
X176904762Y-136923333D01*
X176904762Y-136923333D02*
X176857143Y-136828095D01*
X176857143Y-136828095D02*
X176857143Y-136732857D01*
X176857143Y-136732857D02*
X176904762Y-136637619D01*
X176904762Y-136637619D02*
X176952381Y-136590000D01*
X176952381Y-136590000D02*
X177047619Y-136542380D01*
X177047619Y-136542380D02*
X177285714Y-136542380D01*
X177285714Y-136542380D02*
X177428571Y-136590000D01*
X177809524Y-137256666D02*
X178285714Y-137256666D01*
X177714286Y-137542380D02*
X178047619Y-136542380D01*
X178047619Y-136542380D02*
X178380952Y-137542380D01*
X178714286Y-137542380D02*
X178714286Y-136542380D01*
X178714286Y-136542380D02*
X179047619Y-137256666D01*
X179047619Y-137256666D02*
X179380952Y-136542380D01*
X179380952Y-136542380D02*
X179380952Y-137542380D01*
X180047619Y-136542380D02*
X180142857Y-136542380D01*
X180142857Y-136542380D02*
X180238095Y-136590000D01*
X180238095Y-136590000D02*
X180285714Y-136637619D01*
X180285714Y-136637619D02*
X180333333Y-136732857D01*
X180333333Y-136732857D02*
X180380952Y-136923333D01*
X180380952Y-136923333D02*
X180380952Y-137161428D01*
X180380952Y-137161428D02*
X180333333Y-137351904D01*
X180333333Y-137351904D02*
X180285714Y-137447142D01*
X180285714Y-137447142D02*
X180238095Y-137494761D01*
X180238095Y-137494761D02*
X180142857Y-137542380D01*
X180142857Y-137542380D02*
X180047619Y-137542380D01*
X180047619Y-137542380D02*
X179952381Y-137494761D01*
X179952381Y-137494761D02*
X179904762Y-137447142D01*
X179904762Y-137447142D02*
X179857143Y-137351904D01*
X179857143Y-137351904D02*
X179809524Y-137161428D01*
X179809524Y-137161428D02*
X179809524Y-136923333D01*
X179809524Y-136923333D02*
X179857143Y-136732857D01*
X179857143Y-136732857D02*
X179904762Y-136637619D01*
X179904762Y-136637619D02*
X179952381Y-136590000D01*
X179952381Y-136590000D02*
X180047619Y-136542380D01*
X181000000Y-136542380D02*
X181095238Y-136542380D01*
X181095238Y-136542380D02*
X181190476Y-136590000D01*
X181190476Y-136590000D02*
X181238095Y-136637619D01*
X181238095Y-136637619D02*
X181285714Y-136732857D01*
X181285714Y-136732857D02*
X181333333Y-136923333D01*
X181333333Y-136923333D02*
X181333333Y-137161428D01*
X181333333Y-137161428D02*
X181285714Y-137351904D01*
X181285714Y-137351904D02*
X181238095Y-137447142D01*
X181238095Y-137447142D02*
X181190476Y-137494761D01*
X181190476Y-137494761D02*
X181095238Y-137542380D01*
X181095238Y-137542380D02*
X181000000Y-137542380D01*
X181000000Y-137542380D02*
X180904762Y-137494761D01*
X180904762Y-137494761D02*
X180857143Y-137447142D01*
X180857143Y-137447142D02*
X180809524Y-137351904D01*
X180809524Y-137351904D02*
X180761905Y-137161428D01*
X180761905Y-137161428D02*
X180761905Y-136923333D01*
X180761905Y-136923333D02*
X180809524Y-136732857D01*
X180809524Y-136732857D02*
X180857143Y-136637619D01*
X180857143Y-136637619D02*
X180904762Y-136590000D01*
X180904762Y-136590000D02*
X181000000Y-136542380D01*
X181666667Y-136542380D02*
X182285714Y-136542380D01*
X182285714Y-136542380D02*
X181952381Y-136923333D01*
X181952381Y-136923333D02*
X182095238Y-136923333D01*
X182095238Y-136923333D02*
X182190476Y-136970952D01*
X182190476Y-136970952D02*
X182238095Y-137018571D01*
X182238095Y-137018571D02*
X182285714Y-137113809D01*
X182285714Y-137113809D02*
X182285714Y-137351904D01*
X182285714Y-137351904D02*
X182238095Y-137447142D01*
X182238095Y-137447142D02*
X182190476Y-137494761D01*
X182190476Y-137494761D02*
X182095238Y-137542380D01*
X182095238Y-137542380D02*
X181809524Y-137542380D01*
X181809524Y-137542380D02*
X181714286Y-137494761D01*
X181714286Y-137494761D02*
X181666667Y-137447142D01*
X174238095Y-139162380D02*
X174238095Y-138162380D01*
X174238095Y-138162380D02*
X174809523Y-139162380D01*
X174809523Y-139162380D02*
X174809523Y-138162380D01*
X175285714Y-139162380D02*
X175285714Y-138162380D01*
X175285714Y-138162380D02*
X175523809Y-138162380D01*
X175523809Y-138162380D02*
X175666666Y-138210000D01*
X175666666Y-138210000D02*
X175761904Y-138305238D01*
X175761904Y-138305238D02*
X175809523Y-138400476D01*
X175809523Y-138400476D02*
X175857142Y-138590952D01*
X175857142Y-138590952D02*
X175857142Y-138733809D01*
X175857142Y-138733809D02*
X175809523Y-138924285D01*
X175809523Y-138924285D02*
X175761904Y-139019523D01*
X175761904Y-139019523D02*
X175666666Y-139114761D01*
X175666666Y-139114761D02*
X175523809Y-139162380D01*
X175523809Y-139162380D02*
X175285714Y-139162380D01*
X176190476Y-138162380D02*
X176857142Y-139162380D01*
X176857142Y-138162380D02*
X176190476Y-139162380D01*
X177095238Y-138162380D02*
X177666666Y-138162380D01*
X177380952Y-139162380D02*
X177380952Y-138162380D01*
X178571428Y-139162380D02*
X178238095Y-138686190D01*
X178000000Y-139162380D02*
X178000000Y-138162380D01*
X178000000Y-138162380D02*
X178380952Y-138162380D01*
X178380952Y-138162380D02*
X178476190Y-138210000D01*
X178476190Y-138210000D02*
X178523809Y-138257619D01*
X178523809Y-138257619D02*
X178571428Y-138352857D01*
X178571428Y-138352857D02*
X178571428Y-138495714D01*
X178571428Y-138495714D02*
X178523809Y-138590952D01*
X178523809Y-138590952D02*
X178476190Y-138638571D01*
X178476190Y-138638571D02*
X178380952Y-138686190D01*
X178380952Y-138686190D02*
X178000000Y-138686190D01*
X179000000Y-139162380D02*
X179000000Y-138162380D01*
X179666666Y-138162380D02*
X179761904Y-138162380D01*
X179761904Y-138162380D02*
X179857142Y-138210000D01*
X179857142Y-138210000D02*
X179904761Y-138257619D01*
X179904761Y-138257619D02*
X179952380Y-138352857D01*
X179952380Y-138352857D02*
X179999999Y-138543333D01*
X179999999Y-138543333D02*
X179999999Y-138781428D01*
X179999999Y-138781428D02*
X179952380Y-138971904D01*
X179952380Y-138971904D02*
X179904761Y-139067142D01*
X179904761Y-139067142D02*
X179857142Y-139114761D01*
X179857142Y-139114761D02*
X179761904Y-139162380D01*
X179761904Y-139162380D02*
X179666666Y-139162380D01*
X179666666Y-139162380D02*
X179571428Y-139114761D01*
X179571428Y-139114761D02*
X179523809Y-139067142D01*
X179523809Y-139067142D02*
X179476190Y-138971904D01*
X179476190Y-138971904D02*
X179428571Y-138781428D01*
X179428571Y-138781428D02*
X179428571Y-138543333D01*
X179428571Y-138543333D02*
X179476190Y-138352857D01*
X179476190Y-138352857D02*
X179523809Y-138257619D01*
X179523809Y-138257619D02*
X179571428Y-138210000D01*
X179571428Y-138210000D02*
X179666666Y-138162380D01*
X180380952Y-138257619D02*
X180428571Y-138210000D01*
X180428571Y-138210000D02*
X180523809Y-138162380D01*
X180523809Y-138162380D02*
X180761904Y-138162380D01*
X180761904Y-138162380D02*
X180857142Y-138210000D01*
X180857142Y-138210000D02*
X180904761Y-138257619D01*
X180904761Y-138257619D02*
X180952380Y-138352857D01*
X180952380Y-138352857D02*
X180952380Y-138448095D01*
X180952380Y-138448095D02*
X180904761Y-138590952D01*
X180904761Y-138590952D02*
X180333333Y-139162380D01*
X180333333Y-139162380D02*
X180952380Y-139162380D01*
X181904761Y-139162380D02*
X181333333Y-139162380D01*
X181619047Y-139162380D02*
X181619047Y-138162380D01*
X181619047Y-138162380D02*
X181523809Y-138305238D01*
X181523809Y-138305238D02*
X181428571Y-138400476D01*
X181428571Y-138400476D02*
X181333333Y-138448095D01*
X174095238Y-139782380D02*
X174428571Y-140782380D01*
X174428571Y-140782380D02*
X174761904Y-139782380D01*
X175047619Y-140734761D02*
X175190476Y-140782380D01*
X175190476Y-140782380D02*
X175428571Y-140782380D01*
X175428571Y-140782380D02*
X175523809Y-140734761D01*
X175523809Y-140734761D02*
X175571428Y-140687142D01*
X175571428Y-140687142D02*
X175619047Y-140591904D01*
X175619047Y-140591904D02*
X175619047Y-140496666D01*
X175619047Y-140496666D02*
X175571428Y-140401428D01*
X175571428Y-140401428D02*
X175523809Y-140353809D01*
X175523809Y-140353809D02*
X175428571Y-140306190D01*
X175428571Y-140306190D02*
X175238095Y-140258571D01*
X175238095Y-140258571D02*
X175142857Y-140210952D01*
X175142857Y-140210952D02*
X175095238Y-140163333D01*
X175095238Y-140163333D02*
X175047619Y-140068095D01*
X175047619Y-140068095D02*
X175047619Y-139972857D01*
X175047619Y-139972857D02*
X175095238Y-139877619D01*
X175095238Y-139877619D02*
X175142857Y-139830000D01*
X175142857Y-139830000D02*
X175238095Y-139782380D01*
X175238095Y-139782380D02*
X175476190Y-139782380D01*
X175476190Y-139782380D02*
X175619047Y-139830000D01*
X175904762Y-139782380D02*
X176476190Y-139782380D01*
X176190476Y-140782380D02*
X176190476Y-139782380D01*
X176809524Y-140782380D02*
X176809524Y-139782380D01*
X176809524Y-139782380D02*
X177142857Y-140496666D01*
X177142857Y-140496666D02*
X177476190Y-139782380D01*
X177476190Y-139782380D02*
X177476190Y-140782380D01*
X177952381Y-140782380D02*
X177952381Y-139782380D01*
X178999999Y-140687142D02*
X178952380Y-140734761D01*
X178952380Y-140734761D02*
X178809523Y-140782380D01*
X178809523Y-140782380D02*
X178714285Y-140782380D01*
X178714285Y-140782380D02*
X178571428Y-140734761D01*
X178571428Y-140734761D02*
X178476190Y-140639523D01*
X178476190Y-140639523D02*
X178428571Y-140544285D01*
X178428571Y-140544285D02*
X178380952Y-140353809D01*
X178380952Y-140353809D02*
X178380952Y-140210952D01*
X178380952Y-140210952D02*
X178428571Y-140020476D01*
X178428571Y-140020476D02*
X178476190Y-139925238D01*
X178476190Y-139925238D02*
X178571428Y-139830000D01*
X178571428Y-139830000D02*
X178714285Y-139782380D01*
X178714285Y-139782380D02*
X178809523Y-139782380D01*
X178809523Y-139782380D02*
X178952380Y-139830000D01*
X178952380Y-139830000D02*
X178999999Y-139877619D01*
X179619047Y-139782380D02*
X179714285Y-139782380D01*
X179714285Y-139782380D02*
X179809523Y-139830000D01*
X179809523Y-139830000D02*
X179857142Y-139877619D01*
X179857142Y-139877619D02*
X179904761Y-139972857D01*
X179904761Y-139972857D02*
X179952380Y-140163333D01*
X179952380Y-140163333D02*
X179952380Y-140401428D01*
X179952380Y-140401428D02*
X179904761Y-140591904D01*
X179904761Y-140591904D02*
X179857142Y-140687142D01*
X179857142Y-140687142D02*
X179809523Y-140734761D01*
X179809523Y-140734761D02*
X179714285Y-140782380D01*
X179714285Y-140782380D02*
X179619047Y-140782380D01*
X179619047Y-140782380D02*
X179523809Y-140734761D01*
X179523809Y-140734761D02*
X179476190Y-140687142D01*
X179476190Y-140687142D02*
X179428571Y-140591904D01*
X179428571Y-140591904D02*
X179380952Y-140401428D01*
X179380952Y-140401428D02*
X179380952Y-140163333D01*
X179380952Y-140163333D02*
X179428571Y-139972857D01*
X179428571Y-139972857D02*
X179476190Y-139877619D01*
X179476190Y-139877619D02*
X179523809Y-139830000D01*
X179523809Y-139830000D02*
X179619047Y-139782380D01*
X180571428Y-139782380D02*
X180666666Y-139782380D01*
X180666666Y-139782380D02*
X180761904Y-139830000D01*
X180761904Y-139830000D02*
X180809523Y-139877619D01*
X180809523Y-139877619D02*
X180857142Y-139972857D01*
X180857142Y-139972857D02*
X180904761Y-140163333D01*
X180904761Y-140163333D02*
X180904761Y-140401428D01*
X180904761Y-140401428D02*
X180857142Y-140591904D01*
X180857142Y-140591904D02*
X180809523Y-140687142D01*
X180809523Y-140687142D02*
X180761904Y-140734761D01*
X180761904Y-140734761D02*
X180666666Y-140782380D01*
X180666666Y-140782380D02*
X180571428Y-140782380D01*
X180571428Y-140782380D02*
X180476190Y-140734761D01*
X180476190Y-140734761D02*
X180428571Y-140687142D01*
X180428571Y-140687142D02*
X180380952Y-140591904D01*
X180380952Y-140591904D02*
X180333333Y-140401428D01*
X180333333Y-140401428D02*
X180333333Y-140163333D01*
X180333333Y-140163333D02*
X180380952Y-139972857D01*
X180380952Y-139972857D02*
X180428571Y-139877619D01*
X180428571Y-139877619D02*
X180476190Y-139830000D01*
X180476190Y-139830000D02*
X180571428Y-139782380D01*
X181761904Y-140115714D02*
X181761904Y-140782380D01*
X181523809Y-139734761D02*
X181285714Y-140449047D01*
X181285714Y-140449047D02*
X181904761Y-140449047D01*
X111998095Y-75220380D02*
X111998095Y-74220380D01*
X111998095Y-74696571D02*
X112569523Y-74696571D01*
X112569523Y-75220380D02*
X112569523Y-74220380D01*
X112902857Y-74220380D02*
X113474285Y-74220380D01*
X113188571Y-75220380D02*
X113188571Y-74220380D01*
X113712381Y-74220380D02*
X114379047Y-74220380D01*
X114379047Y-74220380D02*
X113950476Y-75220380D01*
X115236190Y-74220380D02*
X114760000Y-74220380D01*
X114760000Y-74220380D02*
X114712381Y-74696571D01*
X114712381Y-74696571D02*
X114760000Y-74648952D01*
X114760000Y-74648952D02*
X114855238Y-74601333D01*
X114855238Y-74601333D02*
X115093333Y-74601333D01*
X115093333Y-74601333D02*
X115188571Y-74648952D01*
X115188571Y-74648952D02*
X115236190Y-74696571D01*
X115236190Y-74696571D02*
X115283809Y-74791809D01*
X115283809Y-74791809D02*
X115283809Y-75029904D01*
X115283809Y-75029904D02*
X115236190Y-75125142D01*
X115236190Y-75125142D02*
X115188571Y-75172761D01*
X115188571Y-75172761D02*
X115093333Y-75220380D01*
X115093333Y-75220380D02*
X114855238Y-75220380D01*
X114855238Y-75220380D02*
X114760000Y-75172761D01*
X114760000Y-75172761D02*
X114712381Y-75125142D01*
X115617143Y-74220380D02*
X116236190Y-74220380D01*
X116236190Y-74220380D02*
X115902857Y-74601333D01*
X115902857Y-74601333D02*
X116045714Y-74601333D01*
X116045714Y-74601333D02*
X116140952Y-74648952D01*
X116140952Y-74648952D02*
X116188571Y-74696571D01*
X116188571Y-74696571D02*
X116236190Y-74791809D01*
X116236190Y-74791809D02*
X116236190Y-75029904D01*
X116236190Y-75029904D02*
X116188571Y-75125142D01*
X116188571Y-75125142D02*
X116140952Y-75172761D01*
X116140952Y-75172761D02*
X116045714Y-75220380D01*
X116045714Y-75220380D02*
X115760000Y-75220380D01*
X115760000Y-75220380D02*
X115664762Y-75172761D01*
X115664762Y-75172761D02*
X115617143Y-75125142D01*
X116569524Y-74220380D02*
X117188571Y-74220380D01*
X117188571Y-74220380D02*
X116855238Y-74601333D01*
X116855238Y-74601333D02*
X116998095Y-74601333D01*
X116998095Y-74601333D02*
X117093333Y-74648952D01*
X117093333Y-74648952D02*
X117140952Y-74696571D01*
X117140952Y-74696571D02*
X117188571Y-74791809D01*
X117188571Y-74791809D02*
X117188571Y-75029904D01*
X117188571Y-75029904D02*
X117140952Y-75125142D01*
X117140952Y-75125142D02*
X117093333Y-75172761D01*
X117093333Y-75172761D02*
X116998095Y-75220380D01*
X116998095Y-75220380D02*
X116712381Y-75220380D01*
X116712381Y-75220380D02*
X116617143Y-75172761D01*
X116617143Y-75172761D02*
X116569524Y-75125142D01*
X117617143Y-74839428D02*
X118379048Y-74839428D01*
X119379047Y-75220380D02*
X118807619Y-75220380D01*
X119093333Y-75220380D02*
X119093333Y-74220380D01*
X119093333Y-74220380D02*
X118998095Y-74363238D01*
X118998095Y-74363238D02*
X118902857Y-74458476D01*
X118902857Y-74458476D02*
X118807619Y-74506095D01*
X105192380Y-108473904D02*
X104192380Y-108473904D01*
X104668571Y-108473904D02*
X104668571Y-107902476D01*
X105192380Y-107902476D02*
X104192380Y-107902476D01*
X104716190Y-107235809D02*
X105192380Y-107235809D01*
X104192380Y-107569142D02*
X104716190Y-107235809D01*
X104716190Y-107235809D02*
X104192380Y-106902476D01*
X104287619Y-106616761D02*
X104240000Y-106569142D01*
X104240000Y-106569142D02*
X104192380Y-106473904D01*
X104192380Y-106473904D02*
X104192380Y-106235809D01*
X104192380Y-106235809D02*
X104240000Y-106140571D01*
X104240000Y-106140571D02*
X104287619Y-106092952D01*
X104287619Y-106092952D02*
X104382857Y-106045333D01*
X104382857Y-106045333D02*
X104478095Y-106045333D01*
X104478095Y-106045333D02*
X104620952Y-106092952D01*
X104620952Y-106092952D02*
X105192380Y-106664380D01*
X105192380Y-106664380D02*
X105192380Y-106045333D01*
X105192380Y-105092952D02*
X105192380Y-105664380D01*
X105192380Y-105378666D02*
X104192380Y-105378666D01*
X104192380Y-105378666D02*
X104335238Y-105473904D01*
X104335238Y-105473904D02*
X104430476Y-105569142D01*
X104430476Y-105569142D02*
X104478095Y-105664380D01*
X105192380Y-104140571D02*
X105192380Y-104711999D01*
X105192380Y-104426285D02*
X104192380Y-104426285D01*
X104192380Y-104426285D02*
X104335238Y-104521523D01*
X104335238Y-104521523D02*
X104430476Y-104616761D01*
X104430476Y-104616761D02*
X104478095Y-104711999D01*
X104192380Y-103807237D02*
X104192380Y-103188190D01*
X104192380Y-103188190D02*
X104573333Y-103521523D01*
X104573333Y-103521523D02*
X104573333Y-103378666D01*
X104573333Y-103378666D02*
X104620952Y-103283428D01*
X104620952Y-103283428D02*
X104668571Y-103235809D01*
X104668571Y-103235809D02*
X104763809Y-103188190D01*
X104763809Y-103188190D02*
X105001904Y-103188190D01*
X105001904Y-103188190D02*
X105097142Y-103235809D01*
X105097142Y-103235809D02*
X105144761Y-103283428D01*
X105144761Y-103283428D02*
X105192380Y-103378666D01*
X105192380Y-103378666D02*
X105192380Y-103664380D01*
X105192380Y-103664380D02*
X105144761Y-103759618D01*
X105144761Y-103759618D02*
X105097142Y-103807237D01*
X104811428Y-102759618D02*
X104811428Y-101997714D01*
X105192380Y-101521523D02*
X104192380Y-101521523D01*
X105192380Y-100950095D02*
X104620952Y-101378666D01*
X104192380Y-100950095D02*
X104763809Y-101521523D01*
X104668571Y-100188190D02*
X104716190Y-100045333D01*
X104716190Y-100045333D02*
X104763809Y-99997714D01*
X104763809Y-99997714D02*
X104859047Y-99950095D01*
X104859047Y-99950095D02*
X105001904Y-99950095D01*
X105001904Y-99950095D02*
X105097142Y-99997714D01*
X105097142Y-99997714D02*
X105144761Y-100045333D01*
X105144761Y-100045333D02*
X105192380Y-100140571D01*
X105192380Y-100140571D02*
X105192380Y-100521523D01*
X105192380Y-100521523D02*
X104192380Y-100521523D01*
X104192380Y-100521523D02*
X104192380Y-100188190D01*
X104192380Y-100188190D02*
X104240000Y-100092952D01*
X104240000Y-100092952D02*
X104287619Y-100045333D01*
X104287619Y-100045333D02*
X104382857Y-99997714D01*
X104382857Y-99997714D02*
X104478095Y-99997714D01*
X104478095Y-99997714D02*
X104573333Y-100045333D01*
X104573333Y-100045333D02*
X104620952Y-100092952D01*
X104620952Y-100092952D02*
X104668571Y-100188190D01*
X104668571Y-100188190D02*
X104668571Y-100521523D01*
X104192380Y-99045333D02*
X104192380Y-99521523D01*
X104192380Y-99521523D02*
X104668571Y-99569142D01*
X104668571Y-99569142D02*
X104620952Y-99521523D01*
X104620952Y-99521523D02*
X104573333Y-99426285D01*
X104573333Y-99426285D02*
X104573333Y-99188190D01*
X104573333Y-99188190D02*
X104620952Y-99092952D01*
X104620952Y-99092952D02*
X104668571Y-99045333D01*
X104668571Y-99045333D02*
X104763809Y-98997714D01*
X104763809Y-98997714D02*
X105001904Y-98997714D01*
X105001904Y-98997714D02*
X105097142Y-99045333D01*
X105097142Y-99045333D02*
X105144761Y-99092952D01*
X105144761Y-99092952D02*
X105192380Y-99188190D01*
X105192380Y-99188190D02*
X105192380Y-99426285D01*
X105192380Y-99426285D02*
X105144761Y-99521523D01*
X105144761Y-99521523D02*
X105097142Y-99569142D01*
X104668571Y-98235809D02*
X104716190Y-98092952D01*
X104716190Y-98092952D02*
X104763809Y-98045333D01*
X104763809Y-98045333D02*
X104859047Y-97997714D01*
X104859047Y-97997714D02*
X105001904Y-97997714D01*
X105001904Y-97997714D02*
X105097142Y-98045333D01*
X105097142Y-98045333D02*
X105144761Y-98092952D01*
X105144761Y-98092952D02*
X105192380Y-98188190D01*
X105192380Y-98188190D02*
X105192380Y-98569142D01*
X105192380Y-98569142D02*
X104192380Y-98569142D01*
X104192380Y-98569142D02*
X104192380Y-98235809D01*
X104192380Y-98235809D02*
X104240000Y-98140571D01*
X104240000Y-98140571D02*
X104287619Y-98092952D01*
X104287619Y-98092952D02*
X104382857Y-98045333D01*
X104382857Y-98045333D02*
X104478095Y-98045333D01*
X104478095Y-98045333D02*
X104573333Y-98092952D01*
X104573333Y-98092952D02*
X104620952Y-98140571D01*
X104620952Y-98140571D02*
X104668571Y-98235809D01*
X104668571Y-98235809D02*
X104668571Y-98569142D01*
X112506095Y-82332380D02*
X112506095Y-81332380D01*
X112506095Y-81808571D02*
X113077523Y-81808571D01*
X113077523Y-82332380D02*
X113077523Y-81332380D01*
X113410857Y-81332380D02*
X113982285Y-81332380D01*
X113696571Y-82332380D02*
X113696571Y-81332380D01*
X114220381Y-81332380D02*
X114887047Y-81332380D01*
X114887047Y-81332380D02*
X114458476Y-82332380D01*
X115172762Y-81332380D02*
X115839428Y-81332380D01*
X115839428Y-81332380D02*
X115410857Y-82332380D01*
X116696571Y-81332380D02*
X116220381Y-81332380D01*
X116220381Y-81332380D02*
X116172762Y-81808571D01*
X116172762Y-81808571D02*
X116220381Y-81760952D01*
X116220381Y-81760952D02*
X116315619Y-81713333D01*
X116315619Y-81713333D02*
X116553714Y-81713333D01*
X116553714Y-81713333D02*
X116648952Y-81760952D01*
X116648952Y-81760952D02*
X116696571Y-81808571D01*
X116696571Y-81808571D02*
X116744190Y-81903809D01*
X116744190Y-81903809D02*
X116744190Y-82141904D01*
X116744190Y-82141904D02*
X116696571Y-82237142D01*
X116696571Y-82237142D02*
X116648952Y-82284761D01*
X116648952Y-82284761D02*
X116553714Y-82332380D01*
X116553714Y-82332380D02*
X116315619Y-82332380D01*
X116315619Y-82332380D02*
X116220381Y-82284761D01*
X116220381Y-82284761D02*
X116172762Y-82237142D01*
X117363238Y-81332380D02*
X117458476Y-81332380D01*
X117458476Y-81332380D02*
X117553714Y-81380000D01*
X117553714Y-81380000D02*
X117601333Y-81427619D01*
X117601333Y-81427619D02*
X117648952Y-81522857D01*
X117648952Y-81522857D02*
X117696571Y-81713333D01*
X117696571Y-81713333D02*
X117696571Y-81951428D01*
X117696571Y-81951428D02*
X117648952Y-82141904D01*
X117648952Y-82141904D02*
X117601333Y-82237142D01*
X117601333Y-82237142D02*
X117553714Y-82284761D01*
X117553714Y-82284761D02*
X117458476Y-82332380D01*
X117458476Y-82332380D02*
X117363238Y-82332380D01*
X117363238Y-82332380D02*
X117268000Y-82284761D01*
X117268000Y-82284761D02*
X117220381Y-82237142D01*
X117220381Y-82237142D02*
X117172762Y-82141904D01*
X117172762Y-82141904D02*
X117125143Y-81951428D01*
X117125143Y-81951428D02*
X117125143Y-81713333D01*
X117125143Y-81713333D02*
X117172762Y-81522857D01*
X117172762Y-81522857D02*
X117220381Y-81427619D01*
X117220381Y-81427619D02*
X117268000Y-81380000D01*
X117268000Y-81380000D02*
X117363238Y-81332380D01*
X118077524Y-82284761D02*
X118220381Y-82332380D01*
X118220381Y-82332380D02*
X118458476Y-82332380D01*
X118458476Y-82332380D02*
X118553714Y-82284761D01*
X118553714Y-82284761D02*
X118601333Y-82237142D01*
X118601333Y-82237142D02*
X118648952Y-82141904D01*
X118648952Y-82141904D02*
X118648952Y-82046666D01*
X118648952Y-82046666D02*
X118601333Y-81951428D01*
X118601333Y-81951428D02*
X118553714Y-81903809D01*
X118553714Y-81903809D02*
X118458476Y-81856190D01*
X118458476Y-81856190D02*
X118268000Y-81808571D01*
X118268000Y-81808571D02*
X118172762Y-81760952D01*
X118172762Y-81760952D02*
X118125143Y-81713333D01*
X118125143Y-81713333D02*
X118077524Y-81618095D01*
X118077524Y-81618095D02*
X118077524Y-81522857D01*
X118077524Y-81522857D02*
X118125143Y-81427619D01*
X118125143Y-81427619D02*
X118172762Y-81380000D01*
X118172762Y-81380000D02*
X118268000Y-81332380D01*
X118268000Y-81332380D02*
X118506095Y-81332380D01*
X118506095Y-81332380D02*
X118648952Y-81380000D01*
%TO.C,C3*%
X115033333Y-91522142D02*
X114985714Y-91569761D01*
X114985714Y-91569761D02*
X114842857Y-91617380D01*
X114842857Y-91617380D02*
X114747619Y-91617380D01*
X114747619Y-91617380D02*
X114604762Y-91569761D01*
X114604762Y-91569761D02*
X114509524Y-91474523D01*
X114509524Y-91474523D02*
X114461905Y-91379285D01*
X114461905Y-91379285D02*
X114414286Y-91188809D01*
X114414286Y-91188809D02*
X114414286Y-91045952D01*
X114414286Y-91045952D02*
X114461905Y-90855476D01*
X114461905Y-90855476D02*
X114509524Y-90760238D01*
X114509524Y-90760238D02*
X114604762Y-90665000D01*
X114604762Y-90665000D02*
X114747619Y-90617380D01*
X114747619Y-90617380D02*
X114842857Y-90617380D01*
X114842857Y-90617380D02*
X114985714Y-90665000D01*
X114985714Y-90665000D02*
X115033333Y-90712619D01*
X115366667Y-90617380D02*
X115985714Y-90617380D01*
X115985714Y-90617380D02*
X115652381Y-90998333D01*
X115652381Y-90998333D02*
X115795238Y-90998333D01*
X115795238Y-90998333D02*
X115890476Y-91045952D01*
X115890476Y-91045952D02*
X115938095Y-91093571D01*
X115938095Y-91093571D02*
X115985714Y-91188809D01*
X115985714Y-91188809D02*
X115985714Y-91426904D01*
X115985714Y-91426904D02*
X115938095Y-91522142D01*
X115938095Y-91522142D02*
X115890476Y-91569761D01*
X115890476Y-91569761D02*
X115795238Y-91617380D01*
X115795238Y-91617380D02*
X115509524Y-91617380D01*
X115509524Y-91617380D02*
X115414286Y-91569761D01*
X115414286Y-91569761D02*
X115366667Y-91522142D01*
%TO.C,Q2*%
X160717261Y-84562619D02*
X160622023Y-84515000D01*
X160622023Y-84515000D02*
X160526785Y-84419761D01*
X160526785Y-84419761D02*
X160383928Y-84276904D01*
X160383928Y-84276904D02*
X160288690Y-84229285D01*
X160288690Y-84229285D02*
X160193452Y-84229285D01*
X160241071Y-84467380D02*
X160145833Y-84419761D01*
X160145833Y-84419761D02*
X160050595Y-84324523D01*
X160050595Y-84324523D02*
X160002976Y-84134047D01*
X160002976Y-84134047D02*
X160002976Y-83800714D01*
X160002976Y-83800714D02*
X160050595Y-83610238D01*
X160050595Y-83610238D02*
X160145833Y-83515000D01*
X160145833Y-83515000D02*
X160241071Y-83467380D01*
X160241071Y-83467380D02*
X160431547Y-83467380D01*
X160431547Y-83467380D02*
X160526785Y-83515000D01*
X160526785Y-83515000D02*
X160622023Y-83610238D01*
X160622023Y-83610238D02*
X160669642Y-83800714D01*
X160669642Y-83800714D02*
X160669642Y-84134047D01*
X160669642Y-84134047D02*
X160622023Y-84324523D01*
X160622023Y-84324523D02*
X160526785Y-84419761D01*
X160526785Y-84419761D02*
X160431547Y-84467380D01*
X160431547Y-84467380D02*
X160241071Y-84467380D01*
X161050595Y-83562619D02*
X161098214Y-83515000D01*
X161098214Y-83515000D02*
X161193452Y-83467380D01*
X161193452Y-83467380D02*
X161431547Y-83467380D01*
X161431547Y-83467380D02*
X161526785Y-83515000D01*
X161526785Y-83515000D02*
X161574404Y-83562619D01*
X161574404Y-83562619D02*
X161622023Y-83657857D01*
X161622023Y-83657857D02*
X161622023Y-83753095D01*
X161622023Y-83753095D02*
X161574404Y-83895952D01*
X161574404Y-83895952D02*
X161002976Y-84467380D01*
X161002976Y-84467380D02*
X161622023Y-84467380D01*
%TO.C,U2*%
X107417380Y-103361904D02*
X108226904Y-103361904D01*
X108226904Y-103361904D02*
X108322142Y-103314285D01*
X108322142Y-103314285D02*
X108369761Y-103266666D01*
X108369761Y-103266666D02*
X108417380Y-103171428D01*
X108417380Y-103171428D02*
X108417380Y-102980952D01*
X108417380Y-102980952D02*
X108369761Y-102885714D01*
X108369761Y-102885714D02*
X108322142Y-102838095D01*
X108322142Y-102838095D02*
X108226904Y-102790476D01*
X108226904Y-102790476D02*
X107417380Y-102790476D01*
X107512619Y-102361904D02*
X107465000Y-102314285D01*
X107465000Y-102314285D02*
X107417380Y-102219047D01*
X107417380Y-102219047D02*
X107417380Y-101980952D01*
X107417380Y-101980952D02*
X107465000Y-101885714D01*
X107465000Y-101885714D02*
X107512619Y-101838095D01*
X107512619Y-101838095D02*
X107607857Y-101790476D01*
X107607857Y-101790476D02*
X107703095Y-101790476D01*
X107703095Y-101790476D02*
X107845952Y-101838095D01*
X107845952Y-101838095D02*
X108417380Y-102409523D01*
X108417380Y-102409523D02*
X108417380Y-101790476D01*
%TO.C,C4*%
X110034142Y-80311666D02*
X110081761Y-80359285D01*
X110081761Y-80359285D02*
X110129380Y-80502142D01*
X110129380Y-80502142D02*
X110129380Y-80597380D01*
X110129380Y-80597380D02*
X110081761Y-80740237D01*
X110081761Y-80740237D02*
X109986523Y-80835475D01*
X109986523Y-80835475D02*
X109891285Y-80883094D01*
X109891285Y-80883094D02*
X109700809Y-80930713D01*
X109700809Y-80930713D02*
X109557952Y-80930713D01*
X109557952Y-80930713D02*
X109367476Y-80883094D01*
X109367476Y-80883094D02*
X109272238Y-80835475D01*
X109272238Y-80835475D02*
X109177000Y-80740237D01*
X109177000Y-80740237D02*
X109129380Y-80597380D01*
X109129380Y-80597380D02*
X109129380Y-80502142D01*
X109129380Y-80502142D02*
X109177000Y-80359285D01*
X109177000Y-80359285D02*
X109224619Y-80311666D01*
X109462714Y-79454523D02*
X110129380Y-79454523D01*
X109081761Y-79692618D02*
X109796047Y-79930713D01*
X109796047Y-79930713D02*
X109796047Y-79311666D01*
%TO.C,R7*%
X172943333Y-124437380D02*
X172610000Y-123961190D01*
X172371905Y-124437380D02*
X172371905Y-123437380D01*
X172371905Y-123437380D02*
X172752857Y-123437380D01*
X172752857Y-123437380D02*
X172848095Y-123485000D01*
X172848095Y-123485000D02*
X172895714Y-123532619D01*
X172895714Y-123532619D02*
X172943333Y-123627857D01*
X172943333Y-123627857D02*
X172943333Y-123770714D01*
X172943333Y-123770714D02*
X172895714Y-123865952D01*
X172895714Y-123865952D02*
X172848095Y-123913571D01*
X172848095Y-123913571D02*
X172752857Y-123961190D01*
X172752857Y-123961190D02*
X172371905Y-123961190D01*
X173276667Y-123437380D02*
X173943333Y-123437380D01*
X173943333Y-123437380D02*
X173514762Y-124437380D01*
%TO.C,C5*%
X177075833Y-104714142D02*
X177028214Y-104761761D01*
X177028214Y-104761761D02*
X176885357Y-104809380D01*
X176885357Y-104809380D02*
X176790119Y-104809380D01*
X176790119Y-104809380D02*
X176647262Y-104761761D01*
X176647262Y-104761761D02*
X176552024Y-104666523D01*
X176552024Y-104666523D02*
X176504405Y-104571285D01*
X176504405Y-104571285D02*
X176456786Y-104380809D01*
X176456786Y-104380809D02*
X176456786Y-104237952D01*
X176456786Y-104237952D02*
X176504405Y-104047476D01*
X176504405Y-104047476D02*
X176552024Y-103952238D01*
X176552024Y-103952238D02*
X176647262Y-103857000D01*
X176647262Y-103857000D02*
X176790119Y-103809380D01*
X176790119Y-103809380D02*
X176885357Y-103809380D01*
X176885357Y-103809380D02*
X177028214Y-103857000D01*
X177028214Y-103857000D02*
X177075833Y-103904619D01*
X177980595Y-103809380D02*
X177504405Y-103809380D01*
X177504405Y-103809380D02*
X177456786Y-104285571D01*
X177456786Y-104285571D02*
X177504405Y-104237952D01*
X177504405Y-104237952D02*
X177599643Y-104190333D01*
X177599643Y-104190333D02*
X177837738Y-104190333D01*
X177837738Y-104190333D02*
X177932976Y-104237952D01*
X177932976Y-104237952D02*
X177980595Y-104285571D01*
X177980595Y-104285571D02*
X178028214Y-104380809D01*
X178028214Y-104380809D02*
X178028214Y-104618904D01*
X178028214Y-104618904D02*
X177980595Y-104714142D01*
X177980595Y-104714142D02*
X177932976Y-104761761D01*
X177932976Y-104761761D02*
X177837738Y-104809380D01*
X177837738Y-104809380D02*
X177599643Y-104809380D01*
X177599643Y-104809380D02*
X177504405Y-104761761D01*
X177504405Y-104761761D02*
X177456786Y-104714142D01*
%TO.C,R1*%
X110716333Y-96687380D02*
X110383000Y-96211190D01*
X110144905Y-96687380D02*
X110144905Y-95687380D01*
X110144905Y-95687380D02*
X110525857Y-95687380D01*
X110525857Y-95687380D02*
X110621095Y-95735000D01*
X110621095Y-95735000D02*
X110668714Y-95782619D01*
X110668714Y-95782619D02*
X110716333Y-95877857D01*
X110716333Y-95877857D02*
X110716333Y-96020714D01*
X110716333Y-96020714D02*
X110668714Y-96115952D01*
X110668714Y-96115952D02*
X110621095Y-96163571D01*
X110621095Y-96163571D02*
X110525857Y-96211190D01*
X110525857Y-96211190D02*
X110144905Y-96211190D01*
X111668714Y-96687380D02*
X111097286Y-96687380D01*
X111383000Y-96687380D02*
X111383000Y-95687380D01*
X111383000Y-95687380D02*
X111287762Y-95830238D01*
X111287762Y-95830238D02*
X111192524Y-95925476D01*
X111192524Y-95925476D02*
X111097286Y-95973095D01*
%TO.C,R4*%
X154233333Y-85737380D02*
X153900000Y-85261190D01*
X153661905Y-85737380D02*
X153661905Y-84737380D01*
X153661905Y-84737380D02*
X154042857Y-84737380D01*
X154042857Y-84737380D02*
X154138095Y-84785000D01*
X154138095Y-84785000D02*
X154185714Y-84832619D01*
X154185714Y-84832619D02*
X154233333Y-84927857D01*
X154233333Y-84927857D02*
X154233333Y-85070714D01*
X154233333Y-85070714D02*
X154185714Y-85165952D01*
X154185714Y-85165952D02*
X154138095Y-85213571D01*
X154138095Y-85213571D02*
X154042857Y-85261190D01*
X154042857Y-85261190D02*
X153661905Y-85261190D01*
X155090476Y-85070714D02*
X155090476Y-85737380D01*
X154852381Y-84689761D02*
X154614286Y-85404047D01*
X154614286Y-85404047D02*
X155233333Y-85404047D01*
%TO.C,J2*%
X131238666Y-75083380D02*
X131238666Y-75797666D01*
X131238666Y-75797666D02*
X131191047Y-75940523D01*
X131191047Y-75940523D02*
X131095809Y-76035761D01*
X131095809Y-76035761D02*
X130952952Y-76083380D01*
X130952952Y-76083380D02*
X130857714Y-76083380D01*
X131667238Y-75178619D02*
X131714857Y-75131000D01*
X131714857Y-75131000D02*
X131810095Y-75083380D01*
X131810095Y-75083380D02*
X132048190Y-75083380D01*
X132048190Y-75083380D02*
X132143428Y-75131000D01*
X132143428Y-75131000D02*
X132191047Y-75178619D01*
X132191047Y-75178619D02*
X132238666Y-75273857D01*
X132238666Y-75273857D02*
X132238666Y-75369095D01*
X132238666Y-75369095D02*
X132191047Y-75511952D01*
X132191047Y-75511952D02*
X131619619Y-76083380D01*
X131619619Y-76083380D02*
X132238666Y-76083380D01*
%TO.C,C9*%
X177075833Y-115474142D02*
X177028214Y-115521761D01*
X177028214Y-115521761D02*
X176885357Y-115569380D01*
X176885357Y-115569380D02*
X176790119Y-115569380D01*
X176790119Y-115569380D02*
X176647262Y-115521761D01*
X176647262Y-115521761D02*
X176552024Y-115426523D01*
X176552024Y-115426523D02*
X176504405Y-115331285D01*
X176504405Y-115331285D02*
X176456786Y-115140809D01*
X176456786Y-115140809D02*
X176456786Y-114997952D01*
X176456786Y-114997952D02*
X176504405Y-114807476D01*
X176504405Y-114807476D02*
X176552024Y-114712238D01*
X176552024Y-114712238D02*
X176647262Y-114617000D01*
X176647262Y-114617000D02*
X176790119Y-114569380D01*
X176790119Y-114569380D02*
X176885357Y-114569380D01*
X176885357Y-114569380D02*
X177028214Y-114617000D01*
X177028214Y-114617000D02*
X177075833Y-114664619D01*
X177552024Y-115569380D02*
X177742500Y-115569380D01*
X177742500Y-115569380D02*
X177837738Y-115521761D01*
X177837738Y-115521761D02*
X177885357Y-115474142D01*
X177885357Y-115474142D02*
X177980595Y-115331285D01*
X177980595Y-115331285D02*
X178028214Y-115140809D01*
X178028214Y-115140809D02*
X178028214Y-114759857D01*
X178028214Y-114759857D02*
X177980595Y-114664619D01*
X177980595Y-114664619D02*
X177932976Y-114617000D01*
X177932976Y-114617000D02*
X177837738Y-114569380D01*
X177837738Y-114569380D02*
X177647262Y-114569380D01*
X177647262Y-114569380D02*
X177552024Y-114617000D01*
X177552024Y-114617000D02*
X177504405Y-114664619D01*
X177504405Y-114664619D02*
X177456786Y-114759857D01*
X177456786Y-114759857D02*
X177456786Y-114997952D01*
X177456786Y-114997952D02*
X177504405Y-115093190D01*
X177504405Y-115093190D02*
X177552024Y-115140809D01*
X177552024Y-115140809D02*
X177647262Y-115188428D01*
X177647262Y-115188428D02*
X177837738Y-115188428D01*
X177837738Y-115188428D02*
X177932976Y-115140809D01*
X177932976Y-115140809D02*
X177980595Y-115093190D01*
X177980595Y-115093190D02*
X178028214Y-114997952D01*
%TO.C,C6*%
X177075833Y-107404142D02*
X177028214Y-107451761D01*
X177028214Y-107451761D02*
X176885357Y-107499380D01*
X176885357Y-107499380D02*
X176790119Y-107499380D01*
X176790119Y-107499380D02*
X176647262Y-107451761D01*
X176647262Y-107451761D02*
X176552024Y-107356523D01*
X176552024Y-107356523D02*
X176504405Y-107261285D01*
X176504405Y-107261285D02*
X176456786Y-107070809D01*
X176456786Y-107070809D02*
X176456786Y-106927952D01*
X176456786Y-106927952D02*
X176504405Y-106737476D01*
X176504405Y-106737476D02*
X176552024Y-106642238D01*
X176552024Y-106642238D02*
X176647262Y-106547000D01*
X176647262Y-106547000D02*
X176790119Y-106499380D01*
X176790119Y-106499380D02*
X176885357Y-106499380D01*
X176885357Y-106499380D02*
X177028214Y-106547000D01*
X177028214Y-106547000D02*
X177075833Y-106594619D01*
X177932976Y-106499380D02*
X177742500Y-106499380D01*
X177742500Y-106499380D02*
X177647262Y-106547000D01*
X177647262Y-106547000D02*
X177599643Y-106594619D01*
X177599643Y-106594619D02*
X177504405Y-106737476D01*
X177504405Y-106737476D02*
X177456786Y-106927952D01*
X177456786Y-106927952D02*
X177456786Y-107308904D01*
X177456786Y-107308904D02*
X177504405Y-107404142D01*
X177504405Y-107404142D02*
X177552024Y-107451761D01*
X177552024Y-107451761D02*
X177647262Y-107499380D01*
X177647262Y-107499380D02*
X177837738Y-107499380D01*
X177837738Y-107499380D02*
X177932976Y-107451761D01*
X177932976Y-107451761D02*
X177980595Y-107404142D01*
X177980595Y-107404142D02*
X178028214Y-107308904D01*
X178028214Y-107308904D02*
X178028214Y-107070809D01*
X178028214Y-107070809D02*
X177980595Y-106975571D01*
X177980595Y-106975571D02*
X177932976Y-106927952D01*
X177932976Y-106927952D02*
X177837738Y-106880333D01*
X177837738Y-106880333D02*
X177647262Y-106880333D01*
X177647262Y-106880333D02*
X177552024Y-106927952D01*
X177552024Y-106927952D02*
X177504405Y-106975571D01*
X177504405Y-106975571D02*
X177456786Y-107070809D01*
%TO.C,R9*%
X172943333Y-120937380D02*
X172610000Y-120461190D01*
X172371905Y-120937380D02*
X172371905Y-119937380D01*
X172371905Y-119937380D02*
X172752857Y-119937380D01*
X172752857Y-119937380D02*
X172848095Y-119985000D01*
X172848095Y-119985000D02*
X172895714Y-120032619D01*
X172895714Y-120032619D02*
X172943333Y-120127857D01*
X172943333Y-120127857D02*
X172943333Y-120270714D01*
X172943333Y-120270714D02*
X172895714Y-120365952D01*
X172895714Y-120365952D02*
X172848095Y-120413571D01*
X172848095Y-120413571D02*
X172752857Y-120461190D01*
X172752857Y-120461190D02*
X172371905Y-120461190D01*
X173419524Y-120937380D02*
X173610000Y-120937380D01*
X173610000Y-120937380D02*
X173705238Y-120889761D01*
X173705238Y-120889761D02*
X173752857Y-120842142D01*
X173752857Y-120842142D02*
X173848095Y-120699285D01*
X173848095Y-120699285D02*
X173895714Y-120508809D01*
X173895714Y-120508809D02*
X173895714Y-120127857D01*
X173895714Y-120127857D02*
X173848095Y-120032619D01*
X173848095Y-120032619D02*
X173800476Y-119985000D01*
X173800476Y-119985000D02*
X173705238Y-119937380D01*
X173705238Y-119937380D02*
X173514762Y-119937380D01*
X173514762Y-119937380D02*
X173419524Y-119985000D01*
X173419524Y-119985000D02*
X173371905Y-120032619D01*
X173371905Y-120032619D02*
X173324286Y-120127857D01*
X173324286Y-120127857D02*
X173324286Y-120365952D01*
X173324286Y-120365952D02*
X173371905Y-120461190D01*
X173371905Y-120461190D02*
X173419524Y-120508809D01*
X173419524Y-120508809D02*
X173514762Y-120556428D01*
X173514762Y-120556428D02*
X173705238Y-120556428D01*
X173705238Y-120556428D02*
X173800476Y-120508809D01*
X173800476Y-120508809D02*
X173848095Y-120461190D01*
X173848095Y-120461190D02*
X173895714Y-120365952D01*
%TO.C,R2*%
X107743333Y-96997380D02*
X107410000Y-96521190D01*
X107171905Y-96997380D02*
X107171905Y-95997380D01*
X107171905Y-95997380D02*
X107552857Y-95997380D01*
X107552857Y-95997380D02*
X107648095Y-96045000D01*
X107648095Y-96045000D02*
X107695714Y-96092619D01*
X107695714Y-96092619D02*
X107743333Y-96187857D01*
X107743333Y-96187857D02*
X107743333Y-96330714D01*
X107743333Y-96330714D02*
X107695714Y-96425952D01*
X107695714Y-96425952D02*
X107648095Y-96473571D01*
X107648095Y-96473571D02*
X107552857Y-96521190D01*
X107552857Y-96521190D02*
X107171905Y-96521190D01*
X108124286Y-96092619D02*
X108171905Y-96045000D01*
X108171905Y-96045000D02*
X108267143Y-95997380D01*
X108267143Y-95997380D02*
X108505238Y-95997380D01*
X108505238Y-95997380D02*
X108600476Y-96045000D01*
X108600476Y-96045000D02*
X108648095Y-96092619D01*
X108648095Y-96092619D02*
X108695714Y-96187857D01*
X108695714Y-96187857D02*
X108695714Y-96283095D01*
X108695714Y-96283095D02*
X108648095Y-96425952D01*
X108648095Y-96425952D02*
X108076667Y-96997380D01*
X108076667Y-96997380D02*
X108695714Y-96997380D01*
%TO.C,C1*%
X111110833Y-97058142D02*
X111063214Y-97105761D01*
X111063214Y-97105761D02*
X110920357Y-97153380D01*
X110920357Y-97153380D02*
X110825119Y-97153380D01*
X110825119Y-97153380D02*
X110682262Y-97105761D01*
X110682262Y-97105761D02*
X110587024Y-97010523D01*
X110587024Y-97010523D02*
X110539405Y-96915285D01*
X110539405Y-96915285D02*
X110491786Y-96724809D01*
X110491786Y-96724809D02*
X110491786Y-96581952D01*
X110491786Y-96581952D02*
X110539405Y-96391476D01*
X110539405Y-96391476D02*
X110587024Y-96296238D01*
X110587024Y-96296238D02*
X110682262Y-96201000D01*
X110682262Y-96201000D02*
X110825119Y-96153380D01*
X110825119Y-96153380D02*
X110920357Y-96153380D01*
X110920357Y-96153380D02*
X111063214Y-96201000D01*
X111063214Y-96201000D02*
X111110833Y-96248619D01*
X112063214Y-97153380D02*
X111491786Y-97153380D01*
X111777500Y-97153380D02*
X111777500Y-96153380D01*
X111777500Y-96153380D02*
X111682262Y-96296238D01*
X111682262Y-96296238D02*
X111587024Y-96391476D01*
X111587024Y-96391476D02*
X111491786Y-96439095D01*
%TO.C,D2*%
X120261905Y-99367380D02*
X120261905Y-98367380D01*
X120261905Y-98367380D02*
X120500000Y-98367380D01*
X120500000Y-98367380D02*
X120642857Y-98415000D01*
X120642857Y-98415000D02*
X120738095Y-98510238D01*
X120738095Y-98510238D02*
X120785714Y-98605476D01*
X120785714Y-98605476D02*
X120833333Y-98795952D01*
X120833333Y-98795952D02*
X120833333Y-98938809D01*
X120833333Y-98938809D02*
X120785714Y-99129285D01*
X120785714Y-99129285D02*
X120738095Y-99224523D01*
X120738095Y-99224523D02*
X120642857Y-99319761D01*
X120642857Y-99319761D02*
X120500000Y-99367380D01*
X120500000Y-99367380D02*
X120261905Y-99367380D01*
X121214286Y-98462619D02*
X121261905Y-98415000D01*
X121261905Y-98415000D02*
X121357143Y-98367380D01*
X121357143Y-98367380D02*
X121595238Y-98367380D01*
X121595238Y-98367380D02*
X121690476Y-98415000D01*
X121690476Y-98415000D02*
X121738095Y-98462619D01*
X121738095Y-98462619D02*
X121785714Y-98557857D01*
X121785714Y-98557857D02*
X121785714Y-98653095D01*
X121785714Y-98653095D02*
X121738095Y-98795952D01*
X121738095Y-98795952D02*
X121166667Y-99367380D01*
X121166667Y-99367380D02*
X121785714Y-99367380D01*
%TO.C,J3*%
X147240666Y-75083380D02*
X147240666Y-75797666D01*
X147240666Y-75797666D02*
X147193047Y-75940523D01*
X147193047Y-75940523D02*
X147097809Y-76035761D01*
X147097809Y-76035761D02*
X146954952Y-76083380D01*
X146954952Y-76083380D02*
X146859714Y-76083380D01*
X147621619Y-75083380D02*
X148240666Y-75083380D01*
X148240666Y-75083380D02*
X147907333Y-75464333D01*
X147907333Y-75464333D02*
X148050190Y-75464333D01*
X148050190Y-75464333D02*
X148145428Y-75511952D01*
X148145428Y-75511952D02*
X148193047Y-75559571D01*
X148193047Y-75559571D02*
X148240666Y-75654809D01*
X148240666Y-75654809D02*
X148240666Y-75892904D01*
X148240666Y-75892904D02*
X148193047Y-75988142D01*
X148193047Y-75988142D02*
X148145428Y-76035761D01*
X148145428Y-76035761D02*
X148050190Y-76083380D01*
X148050190Y-76083380D02*
X147764476Y-76083380D01*
X147764476Y-76083380D02*
X147669238Y-76035761D01*
X147669238Y-76035761D02*
X147621619Y-75988142D01*
%TO.C,U3*%
X111437380Y-85597904D02*
X112246904Y-85597904D01*
X112246904Y-85597904D02*
X112342142Y-85550285D01*
X112342142Y-85550285D02*
X112389761Y-85502666D01*
X112389761Y-85502666D02*
X112437380Y-85407428D01*
X112437380Y-85407428D02*
X112437380Y-85216952D01*
X112437380Y-85216952D02*
X112389761Y-85121714D01*
X112389761Y-85121714D02*
X112342142Y-85074095D01*
X112342142Y-85074095D02*
X112246904Y-85026476D01*
X112246904Y-85026476D02*
X111437380Y-85026476D01*
X111437380Y-84645523D02*
X111437380Y-84026476D01*
X111437380Y-84026476D02*
X111818333Y-84359809D01*
X111818333Y-84359809D02*
X111818333Y-84216952D01*
X111818333Y-84216952D02*
X111865952Y-84121714D01*
X111865952Y-84121714D02*
X111913571Y-84074095D01*
X111913571Y-84074095D02*
X112008809Y-84026476D01*
X112008809Y-84026476D02*
X112246904Y-84026476D01*
X112246904Y-84026476D02*
X112342142Y-84074095D01*
X112342142Y-84074095D02*
X112389761Y-84121714D01*
X112389761Y-84121714D02*
X112437380Y-84216952D01*
X112437380Y-84216952D02*
X112437380Y-84502666D01*
X112437380Y-84502666D02*
X112389761Y-84597904D01*
X112389761Y-84597904D02*
X112342142Y-84645523D01*
%TO.C,D1*%
X115661905Y-131067380D02*
X115661905Y-130067380D01*
X115661905Y-130067380D02*
X115900000Y-130067380D01*
X115900000Y-130067380D02*
X116042857Y-130115000D01*
X116042857Y-130115000D02*
X116138095Y-130210238D01*
X116138095Y-130210238D02*
X116185714Y-130305476D01*
X116185714Y-130305476D02*
X116233333Y-130495952D01*
X116233333Y-130495952D02*
X116233333Y-130638809D01*
X116233333Y-130638809D02*
X116185714Y-130829285D01*
X116185714Y-130829285D02*
X116138095Y-130924523D01*
X116138095Y-130924523D02*
X116042857Y-131019761D01*
X116042857Y-131019761D02*
X115900000Y-131067380D01*
X115900000Y-131067380D02*
X115661905Y-131067380D01*
X117185714Y-131067380D02*
X116614286Y-131067380D01*
X116900000Y-131067380D02*
X116900000Y-130067380D01*
X116900000Y-130067380D02*
X116804762Y-130210238D01*
X116804762Y-130210238D02*
X116709524Y-130305476D01*
X116709524Y-130305476D02*
X116614286Y-130353095D01*
%TO.C,Q3*%
X113468619Y-108580738D02*
X113421000Y-108675976D01*
X113421000Y-108675976D02*
X113325761Y-108771214D01*
X113325761Y-108771214D02*
X113182904Y-108914071D01*
X113182904Y-108914071D02*
X113135285Y-109009309D01*
X113135285Y-109009309D02*
X113135285Y-109104547D01*
X113373380Y-109056928D02*
X113325761Y-109152166D01*
X113325761Y-109152166D02*
X113230523Y-109247404D01*
X113230523Y-109247404D02*
X113040047Y-109295023D01*
X113040047Y-109295023D02*
X112706714Y-109295023D01*
X112706714Y-109295023D02*
X112516238Y-109247404D01*
X112516238Y-109247404D02*
X112421000Y-109152166D01*
X112421000Y-109152166D02*
X112373380Y-109056928D01*
X112373380Y-109056928D02*
X112373380Y-108866452D01*
X112373380Y-108866452D02*
X112421000Y-108771214D01*
X112421000Y-108771214D02*
X112516238Y-108675976D01*
X112516238Y-108675976D02*
X112706714Y-108628357D01*
X112706714Y-108628357D02*
X113040047Y-108628357D01*
X113040047Y-108628357D02*
X113230523Y-108675976D01*
X113230523Y-108675976D02*
X113325761Y-108771214D01*
X113325761Y-108771214D02*
X113373380Y-108866452D01*
X113373380Y-108866452D02*
X113373380Y-109056928D01*
X112373380Y-108295023D02*
X112373380Y-107675976D01*
X112373380Y-107675976D02*
X112754333Y-108009309D01*
X112754333Y-108009309D02*
X112754333Y-107866452D01*
X112754333Y-107866452D02*
X112801952Y-107771214D01*
X112801952Y-107771214D02*
X112849571Y-107723595D01*
X112849571Y-107723595D02*
X112944809Y-107675976D01*
X112944809Y-107675976D02*
X113182904Y-107675976D01*
X113182904Y-107675976D02*
X113278142Y-107723595D01*
X113278142Y-107723595D02*
X113325761Y-107771214D01*
X113325761Y-107771214D02*
X113373380Y-107866452D01*
X113373380Y-107866452D02*
X113373380Y-108152166D01*
X113373380Y-108152166D02*
X113325761Y-108247404D01*
X113325761Y-108247404D02*
X113278142Y-108295023D01*
%TO.C,Q1*%
X113100619Y-103058738D02*
X113053000Y-103153976D01*
X113053000Y-103153976D02*
X112957761Y-103249214D01*
X112957761Y-103249214D02*
X112814904Y-103392071D01*
X112814904Y-103392071D02*
X112767285Y-103487309D01*
X112767285Y-103487309D02*
X112767285Y-103582547D01*
X113005380Y-103534928D02*
X112957761Y-103630166D01*
X112957761Y-103630166D02*
X112862523Y-103725404D01*
X112862523Y-103725404D02*
X112672047Y-103773023D01*
X112672047Y-103773023D02*
X112338714Y-103773023D01*
X112338714Y-103773023D02*
X112148238Y-103725404D01*
X112148238Y-103725404D02*
X112053000Y-103630166D01*
X112053000Y-103630166D02*
X112005380Y-103534928D01*
X112005380Y-103534928D02*
X112005380Y-103344452D01*
X112005380Y-103344452D02*
X112053000Y-103249214D01*
X112053000Y-103249214D02*
X112148238Y-103153976D01*
X112148238Y-103153976D02*
X112338714Y-103106357D01*
X112338714Y-103106357D02*
X112672047Y-103106357D01*
X112672047Y-103106357D02*
X112862523Y-103153976D01*
X112862523Y-103153976D02*
X112957761Y-103249214D01*
X112957761Y-103249214D02*
X113005380Y-103344452D01*
X113005380Y-103344452D02*
X113005380Y-103534928D01*
X113005380Y-102153976D02*
X113005380Y-102725404D01*
X113005380Y-102439690D02*
X112005380Y-102439690D01*
X112005380Y-102439690D02*
X112148238Y-102534928D01*
X112148238Y-102534928D02*
X112243476Y-102630166D01*
X112243476Y-102630166D02*
X112291095Y-102725404D01*
%TO.C,U6*%
X163238095Y-98687380D02*
X163238095Y-99496904D01*
X163238095Y-99496904D02*
X163285714Y-99592142D01*
X163285714Y-99592142D02*
X163333333Y-99639761D01*
X163333333Y-99639761D02*
X163428571Y-99687380D01*
X163428571Y-99687380D02*
X163619047Y-99687380D01*
X163619047Y-99687380D02*
X163714285Y-99639761D01*
X163714285Y-99639761D02*
X163761904Y-99592142D01*
X163761904Y-99592142D02*
X163809523Y-99496904D01*
X163809523Y-99496904D02*
X163809523Y-98687380D01*
X164714285Y-98687380D02*
X164523809Y-98687380D01*
X164523809Y-98687380D02*
X164428571Y-98735000D01*
X164428571Y-98735000D02*
X164380952Y-98782619D01*
X164380952Y-98782619D02*
X164285714Y-98925476D01*
X164285714Y-98925476D02*
X164238095Y-99115952D01*
X164238095Y-99115952D02*
X164238095Y-99496904D01*
X164238095Y-99496904D02*
X164285714Y-99592142D01*
X164285714Y-99592142D02*
X164333333Y-99639761D01*
X164333333Y-99639761D02*
X164428571Y-99687380D01*
X164428571Y-99687380D02*
X164619047Y-99687380D01*
X164619047Y-99687380D02*
X164714285Y-99639761D01*
X164714285Y-99639761D02*
X164761904Y-99592142D01*
X164761904Y-99592142D02*
X164809523Y-99496904D01*
X164809523Y-99496904D02*
X164809523Y-99258809D01*
X164809523Y-99258809D02*
X164761904Y-99163571D01*
X164761904Y-99163571D02*
X164714285Y-99115952D01*
X164714285Y-99115952D02*
X164619047Y-99068333D01*
X164619047Y-99068333D02*
X164428571Y-99068333D01*
X164428571Y-99068333D02*
X164333333Y-99115952D01*
X164333333Y-99115952D02*
X164285714Y-99163571D01*
X164285714Y-99163571D02*
X164238095Y-99258809D01*
%TO.C,U4*%
X111437380Y-78761904D02*
X112246904Y-78761904D01*
X112246904Y-78761904D02*
X112342142Y-78714285D01*
X112342142Y-78714285D02*
X112389761Y-78666666D01*
X112389761Y-78666666D02*
X112437380Y-78571428D01*
X112437380Y-78571428D02*
X112437380Y-78380952D01*
X112437380Y-78380952D02*
X112389761Y-78285714D01*
X112389761Y-78285714D02*
X112342142Y-78238095D01*
X112342142Y-78238095D02*
X112246904Y-78190476D01*
X112246904Y-78190476D02*
X111437380Y-78190476D01*
X111770714Y-77285714D02*
X112437380Y-77285714D01*
X111389761Y-77523809D02*
X112104047Y-77761904D01*
X112104047Y-77761904D02*
X112104047Y-77142857D01*
%TO.C,RL1*%
X153537380Y-89971428D02*
X153061190Y-90304761D01*
X153537380Y-90542856D02*
X152537380Y-90542856D01*
X152537380Y-90542856D02*
X152537380Y-90161904D01*
X152537380Y-90161904D02*
X152585000Y-90066666D01*
X152585000Y-90066666D02*
X152632619Y-90019047D01*
X152632619Y-90019047D02*
X152727857Y-89971428D01*
X152727857Y-89971428D02*
X152870714Y-89971428D01*
X152870714Y-89971428D02*
X152965952Y-90019047D01*
X152965952Y-90019047D02*
X153013571Y-90066666D01*
X153013571Y-90066666D02*
X153061190Y-90161904D01*
X153061190Y-90161904D02*
X153061190Y-90542856D01*
X153537380Y-89066666D02*
X153537380Y-89542856D01*
X153537380Y-89542856D02*
X152537380Y-89542856D01*
X153537380Y-88209523D02*
X153537380Y-88780951D01*
X153537380Y-88495237D02*
X152537380Y-88495237D01*
X152537380Y-88495237D02*
X152680238Y-88590475D01*
X152680238Y-88590475D02*
X152775476Y-88685713D01*
X152775476Y-88685713D02*
X152823095Y-88780951D01*
%TO.C,C7*%
X177075833Y-110044142D02*
X177028214Y-110091761D01*
X177028214Y-110091761D02*
X176885357Y-110139380D01*
X176885357Y-110139380D02*
X176790119Y-110139380D01*
X176790119Y-110139380D02*
X176647262Y-110091761D01*
X176647262Y-110091761D02*
X176552024Y-109996523D01*
X176552024Y-109996523D02*
X176504405Y-109901285D01*
X176504405Y-109901285D02*
X176456786Y-109710809D01*
X176456786Y-109710809D02*
X176456786Y-109567952D01*
X176456786Y-109567952D02*
X176504405Y-109377476D01*
X176504405Y-109377476D02*
X176552024Y-109282238D01*
X176552024Y-109282238D02*
X176647262Y-109187000D01*
X176647262Y-109187000D02*
X176790119Y-109139380D01*
X176790119Y-109139380D02*
X176885357Y-109139380D01*
X176885357Y-109139380D02*
X177028214Y-109187000D01*
X177028214Y-109187000D02*
X177075833Y-109234619D01*
X177409167Y-109139380D02*
X178075833Y-109139380D01*
X178075833Y-109139380D02*
X177647262Y-110139380D01*
D11*
%TO.C,Y1*%
X170545428Y-86492971D02*
X170545428Y-86721542D01*
X170385428Y-86241542D02*
X170545428Y-86492971D01*
X170545428Y-86492971D02*
X170705428Y-86241542D01*
X171116857Y-86721542D02*
X170842571Y-86721542D01*
X170979714Y-86721542D02*
X170979714Y-86241542D01*
X170979714Y-86241542D02*
X170934000Y-86310114D01*
X170934000Y-86310114D02*
X170888285Y-86355828D01*
X170888285Y-86355828D02*
X170842571Y-86378685D01*
D10*
%TO.C,R6*%
X173635333Y-108471380D02*
X173302000Y-107995190D01*
X173063905Y-108471380D02*
X173063905Y-107471380D01*
X173063905Y-107471380D02*
X173444857Y-107471380D01*
X173444857Y-107471380D02*
X173540095Y-107519000D01*
X173540095Y-107519000D02*
X173587714Y-107566619D01*
X173587714Y-107566619D02*
X173635333Y-107661857D01*
X173635333Y-107661857D02*
X173635333Y-107804714D01*
X173635333Y-107804714D02*
X173587714Y-107899952D01*
X173587714Y-107899952D02*
X173540095Y-107947571D01*
X173540095Y-107947571D02*
X173444857Y-107995190D01*
X173444857Y-107995190D02*
X173063905Y-107995190D01*
X174492476Y-107471380D02*
X174302000Y-107471380D01*
X174302000Y-107471380D02*
X174206762Y-107519000D01*
X174206762Y-107519000D02*
X174159143Y-107566619D01*
X174159143Y-107566619D02*
X174063905Y-107709476D01*
X174063905Y-107709476D02*
X174016286Y-107899952D01*
X174016286Y-107899952D02*
X174016286Y-108280904D01*
X174016286Y-108280904D02*
X174063905Y-108376142D01*
X174063905Y-108376142D02*
X174111524Y-108423761D01*
X174111524Y-108423761D02*
X174206762Y-108471380D01*
X174206762Y-108471380D02*
X174397238Y-108471380D01*
X174397238Y-108471380D02*
X174492476Y-108423761D01*
X174492476Y-108423761D02*
X174540095Y-108376142D01*
X174540095Y-108376142D02*
X174587714Y-108280904D01*
X174587714Y-108280904D02*
X174587714Y-108042809D01*
X174587714Y-108042809D02*
X174540095Y-107947571D01*
X174540095Y-107947571D02*
X174492476Y-107899952D01*
X174492476Y-107899952D02*
X174397238Y-107852333D01*
X174397238Y-107852333D02*
X174206762Y-107852333D01*
X174206762Y-107852333D02*
X174111524Y-107899952D01*
X174111524Y-107899952D02*
X174063905Y-107947571D01*
X174063905Y-107947571D02*
X174016286Y-108042809D01*
%TO.C,R8*%
X172943333Y-122687380D02*
X172610000Y-122211190D01*
X172371905Y-122687380D02*
X172371905Y-121687380D01*
X172371905Y-121687380D02*
X172752857Y-121687380D01*
X172752857Y-121687380D02*
X172848095Y-121735000D01*
X172848095Y-121735000D02*
X172895714Y-121782619D01*
X172895714Y-121782619D02*
X172943333Y-121877857D01*
X172943333Y-121877857D02*
X172943333Y-122020714D01*
X172943333Y-122020714D02*
X172895714Y-122115952D01*
X172895714Y-122115952D02*
X172848095Y-122163571D01*
X172848095Y-122163571D02*
X172752857Y-122211190D01*
X172752857Y-122211190D02*
X172371905Y-122211190D01*
X173514762Y-122115952D02*
X173419524Y-122068333D01*
X173419524Y-122068333D02*
X173371905Y-122020714D01*
X173371905Y-122020714D02*
X173324286Y-121925476D01*
X173324286Y-121925476D02*
X173324286Y-121877857D01*
X173324286Y-121877857D02*
X173371905Y-121782619D01*
X173371905Y-121782619D02*
X173419524Y-121735000D01*
X173419524Y-121735000D02*
X173514762Y-121687380D01*
X173514762Y-121687380D02*
X173705238Y-121687380D01*
X173705238Y-121687380D02*
X173800476Y-121735000D01*
X173800476Y-121735000D02*
X173848095Y-121782619D01*
X173848095Y-121782619D02*
X173895714Y-121877857D01*
X173895714Y-121877857D02*
X173895714Y-121925476D01*
X173895714Y-121925476D02*
X173848095Y-122020714D01*
X173848095Y-122020714D02*
X173800476Y-122068333D01*
X173800476Y-122068333D02*
X173705238Y-122115952D01*
X173705238Y-122115952D02*
X173514762Y-122115952D01*
X173514762Y-122115952D02*
X173419524Y-122163571D01*
X173419524Y-122163571D02*
X173371905Y-122211190D01*
X173371905Y-122211190D02*
X173324286Y-122306428D01*
X173324286Y-122306428D02*
X173324286Y-122496904D01*
X173324286Y-122496904D02*
X173371905Y-122592142D01*
X173371905Y-122592142D02*
X173419524Y-122639761D01*
X173419524Y-122639761D02*
X173514762Y-122687380D01*
X173514762Y-122687380D02*
X173705238Y-122687380D01*
X173705238Y-122687380D02*
X173800476Y-122639761D01*
X173800476Y-122639761D02*
X173848095Y-122592142D01*
X173848095Y-122592142D02*
X173895714Y-122496904D01*
X173895714Y-122496904D02*
X173895714Y-122306428D01*
X173895714Y-122306428D02*
X173848095Y-122211190D01*
X173848095Y-122211190D02*
X173800476Y-122163571D01*
X173800476Y-122163571D02*
X173705238Y-122115952D01*
%TO.C,U1*%
X162337380Y-94411904D02*
X163146904Y-94411904D01*
X163146904Y-94411904D02*
X163242142Y-94364285D01*
X163242142Y-94364285D02*
X163289761Y-94316666D01*
X163289761Y-94316666D02*
X163337380Y-94221428D01*
X163337380Y-94221428D02*
X163337380Y-94030952D01*
X163337380Y-94030952D02*
X163289761Y-93935714D01*
X163289761Y-93935714D02*
X163242142Y-93888095D01*
X163242142Y-93888095D02*
X163146904Y-93840476D01*
X163146904Y-93840476D02*
X162337380Y-93840476D01*
X163337380Y-92840476D02*
X163337380Y-93411904D01*
X163337380Y-93126190D02*
X162337380Y-93126190D01*
X162337380Y-93126190D02*
X162480238Y-93221428D01*
X162480238Y-93221428D02*
X162575476Y-93316666D01*
X162575476Y-93316666D02*
X162623095Y-93411904D01*
%TO.C,L1*%
X125711380Y-89574666D02*
X125711380Y-90050856D01*
X125711380Y-90050856D02*
X124711380Y-90050856D01*
X125711380Y-88717523D02*
X125711380Y-89288951D01*
X125711380Y-89003237D02*
X124711380Y-89003237D01*
X124711380Y-89003237D02*
X124854238Y-89098475D01*
X124854238Y-89098475D02*
X124949476Y-89193713D01*
X124949476Y-89193713D02*
X124997095Y-89288951D01*
%TO.C,C8*%
X177075833Y-112784142D02*
X177028214Y-112831761D01*
X177028214Y-112831761D02*
X176885357Y-112879380D01*
X176885357Y-112879380D02*
X176790119Y-112879380D01*
X176790119Y-112879380D02*
X176647262Y-112831761D01*
X176647262Y-112831761D02*
X176552024Y-112736523D01*
X176552024Y-112736523D02*
X176504405Y-112641285D01*
X176504405Y-112641285D02*
X176456786Y-112450809D01*
X176456786Y-112450809D02*
X176456786Y-112307952D01*
X176456786Y-112307952D02*
X176504405Y-112117476D01*
X176504405Y-112117476D02*
X176552024Y-112022238D01*
X176552024Y-112022238D02*
X176647262Y-111927000D01*
X176647262Y-111927000D02*
X176790119Y-111879380D01*
X176790119Y-111879380D02*
X176885357Y-111879380D01*
X176885357Y-111879380D02*
X177028214Y-111927000D01*
X177028214Y-111927000D02*
X177075833Y-111974619D01*
X177647262Y-112307952D02*
X177552024Y-112260333D01*
X177552024Y-112260333D02*
X177504405Y-112212714D01*
X177504405Y-112212714D02*
X177456786Y-112117476D01*
X177456786Y-112117476D02*
X177456786Y-112069857D01*
X177456786Y-112069857D02*
X177504405Y-111974619D01*
X177504405Y-111974619D02*
X177552024Y-111927000D01*
X177552024Y-111927000D02*
X177647262Y-111879380D01*
X177647262Y-111879380D02*
X177837738Y-111879380D01*
X177837738Y-111879380D02*
X177932976Y-111927000D01*
X177932976Y-111927000D02*
X177980595Y-111974619D01*
X177980595Y-111974619D02*
X178028214Y-112069857D01*
X178028214Y-112069857D02*
X178028214Y-112117476D01*
X178028214Y-112117476D02*
X177980595Y-112212714D01*
X177980595Y-112212714D02*
X177932976Y-112260333D01*
X177932976Y-112260333D02*
X177837738Y-112307952D01*
X177837738Y-112307952D02*
X177647262Y-112307952D01*
X177647262Y-112307952D02*
X177552024Y-112355571D01*
X177552024Y-112355571D02*
X177504405Y-112403190D01*
X177504405Y-112403190D02*
X177456786Y-112498428D01*
X177456786Y-112498428D02*
X177456786Y-112688904D01*
X177456786Y-112688904D02*
X177504405Y-112784142D01*
X177504405Y-112784142D02*
X177552024Y-112831761D01*
X177552024Y-112831761D02*
X177647262Y-112879380D01*
X177647262Y-112879380D02*
X177837738Y-112879380D01*
X177837738Y-112879380D02*
X177932976Y-112831761D01*
X177932976Y-112831761D02*
X177980595Y-112784142D01*
X177980595Y-112784142D02*
X178028214Y-112688904D01*
X178028214Y-112688904D02*
X178028214Y-112498428D01*
X178028214Y-112498428D02*
X177980595Y-112403190D01*
X177980595Y-112403190D02*
X177932976Y-112355571D01*
X177932976Y-112355571D02*
X177837738Y-112307952D01*
%TO.C,R3*%
X154320833Y-83317380D02*
X153987500Y-82841190D01*
X153749405Y-83317380D02*
X153749405Y-82317380D01*
X153749405Y-82317380D02*
X154130357Y-82317380D01*
X154130357Y-82317380D02*
X154225595Y-82365000D01*
X154225595Y-82365000D02*
X154273214Y-82412619D01*
X154273214Y-82412619D02*
X154320833Y-82507857D01*
X154320833Y-82507857D02*
X154320833Y-82650714D01*
X154320833Y-82650714D02*
X154273214Y-82745952D01*
X154273214Y-82745952D02*
X154225595Y-82793571D01*
X154225595Y-82793571D02*
X154130357Y-82841190D01*
X154130357Y-82841190D02*
X153749405Y-82841190D01*
X154654167Y-82317380D02*
X155273214Y-82317380D01*
X155273214Y-82317380D02*
X154939881Y-82698333D01*
X154939881Y-82698333D02*
X155082738Y-82698333D01*
X155082738Y-82698333D02*
X155177976Y-82745952D01*
X155177976Y-82745952D02*
X155225595Y-82793571D01*
X155225595Y-82793571D02*
X155273214Y-82888809D01*
X155273214Y-82888809D02*
X155273214Y-83126904D01*
X155273214Y-83126904D02*
X155225595Y-83222142D01*
X155225595Y-83222142D02*
X155177976Y-83269761D01*
X155177976Y-83269761D02*
X155082738Y-83317380D01*
X155082738Y-83317380D02*
X154797024Y-83317380D01*
X154797024Y-83317380D02*
X154701786Y-83269761D01*
X154701786Y-83269761D02*
X154654167Y-83222142D01*
%TO.C,C2*%
X119288333Y-94822142D02*
X119240714Y-94869761D01*
X119240714Y-94869761D02*
X119097857Y-94917380D01*
X119097857Y-94917380D02*
X119002619Y-94917380D01*
X119002619Y-94917380D02*
X118859762Y-94869761D01*
X118859762Y-94869761D02*
X118764524Y-94774523D01*
X118764524Y-94774523D02*
X118716905Y-94679285D01*
X118716905Y-94679285D02*
X118669286Y-94488809D01*
X118669286Y-94488809D02*
X118669286Y-94345952D01*
X118669286Y-94345952D02*
X118716905Y-94155476D01*
X118716905Y-94155476D02*
X118764524Y-94060238D01*
X118764524Y-94060238D02*
X118859762Y-93965000D01*
X118859762Y-93965000D02*
X119002619Y-93917380D01*
X119002619Y-93917380D02*
X119097857Y-93917380D01*
X119097857Y-93917380D02*
X119240714Y-93965000D01*
X119240714Y-93965000D02*
X119288333Y-94012619D01*
X119669286Y-94012619D02*
X119716905Y-93965000D01*
X119716905Y-93965000D02*
X119812143Y-93917380D01*
X119812143Y-93917380D02*
X120050238Y-93917380D01*
X120050238Y-93917380D02*
X120145476Y-93965000D01*
X120145476Y-93965000D02*
X120193095Y-94012619D01*
X120193095Y-94012619D02*
X120240714Y-94107857D01*
X120240714Y-94107857D02*
X120240714Y-94203095D01*
X120240714Y-94203095D02*
X120193095Y-94345952D01*
X120193095Y-94345952D02*
X119621667Y-94917380D01*
X119621667Y-94917380D02*
X120240714Y-94917380D01*
%TO.C,U5*%
X164238095Y-107517380D02*
X164238095Y-108326904D01*
X164238095Y-108326904D02*
X164285714Y-108422142D01*
X164285714Y-108422142D02*
X164333333Y-108469761D01*
X164333333Y-108469761D02*
X164428571Y-108517380D01*
X164428571Y-108517380D02*
X164619047Y-108517380D01*
X164619047Y-108517380D02*
X164714285Y-108469761D01*
X164714285Y-108469761D02*
X164761904Y-108422142D01*
X164761904Y-108422142D02*
X164809523Y-108326904D01*
X164809523Y-108326904D02*
X164809523Y-107517380D01*
X165761904Y-107517380D02*
X165285714Y-107517380D01*
X165285714Y-107517380D02*
X165238095Y-107993571D01*
X165238095Y-107993571D02*
X165285714Y-107945952D01*
X165285714Y-107945952D02*
X165380952Y-107898333D01*
X165380952Y-107898333D02*
X165619047Y-107898333D01*
X165619047Y-107898333D02*
X165714285Y-107945952D01*
X165714285Y-107945952D02*
X165761904Y-107993571D01*
X165761904Y-107993571D02*
X165809523Y-108088809D01*
X165809523Y-108088809D02*
X165809523Y-108326904D01*
X165809523Y-108326904D02*
X165761904Y-108422142D01*
X165761904Y-108422142D02*
X165714285Y-108469761D01*
X165714285Y-108469761D02*
X165619047Y-108517380D01*
X165619047Y-108517380D02*
X165380952Y-108517380D01*
X165380952Y-108517380D02*
X165285714Y-108469761D01*
X165285714Y-108469761D02*
X165238095Y-108422142D01*
%TO.C,R5*%
X172419380Y-117166666D02*
X171943190Y-117499999D01*
X172419380Y-117738094D02*
X171419380Y-117738094D01*
X171419380Y-117738094D02*
X171419380Y-117357142D01*
X171419380Y-117357142D02*
X171467000Y-117261904D01*
X171467000Y-117261904D02*
X171514619Y-117214285D01*
X171514619Y-117214285D02*
X171609857Y-117166666D01*
X171609857Y-117166666D02*
X171752714Y-117166666D01*
X171752714Y-117166666D02*
X171847952Y-117214285D01*
X171847952Y-117214285D02*
X171895571Y-117261904D01*
X171895571Y-117261904D02*
X171943190Y-117357142D01*
X171943190Y-117357142D02*
X171943190Y-117738094D01*
X171419380Y-116261904D02*
X171419380Y-116738094D01*
X171419380Y-116738094D02*
X171895571Y-116785713D01*
X171895571Y-116785713D02*
X171847952Y-116738094D01*
X171847952Y-116738094D02*
X171800333Y-116642856D01*
X171800333Y-116642856D02*
X171800333Y-116404761D01*
X171800333Y-116404761D02*
X171847952Y-116309523D01*
X171847952Y-116309523D02*
X171895571Y-116261904D01*
X171895571Y-116261904D02*
X171990809Y-116214285D01*
X171990809Y-116214285D02*
X172228904Y-116214285D01*
X172228904Y-116214285D02*
X172324142Y-116261904D01*
X172324142Y-116261904D02*
X172371761Y-116309523D01*
X172371761Y-116309523D02*
X172419380Y-116404761D01*
X172419380Y-116404761D02*
X172419380Y-116642856D01*
X172419380Y-116642856D02*
X172371761Y-116738094D01*
X172371761Y-116738094D02*
X172324142Y-116785713D01*
D11*
%TO.C,Q2*%
X160812500Y-84940000D02*
X159137500Y-84940000D01*
X160812500Y-84940000D02*
X161462500Y-84940000D01*
X160812500Y-88060000D02*
X160162500Y-88060000D01*
X160812500Y-88060000D02*
X161462500Y-88060000D01*
%TO.C,U2*%
X108890000Y-102600000D02*
X108890000Y-104400000D01*
X108890000Y-102600000D02*
X108890000Y-101800000D01*
X112010000Y-102600000D02*
X112010000Y-103400000D01*
X112010000Y-102600000D02*
X112010000Y-101800000D01*
%TO.C,R7*%
X173263641Y-123280000D02*
X172956359Y-123280000D01*
X173263641Y-122520000D02*
X172956359Y-122520000D01*
%TO.C,C5*%
X177101920Y-105362000D02*
X177383080Y-105362000D01*
X177101920Y-106382000D02*
X177383080Y-106382000D01*
%TO.C,R1*%
X111610064Y-95410000D02*
X110155936Y-95410000D01*
X111610064Y-93590000D02*
X110155936Y-93590000D01*
%TO.C,R4*%
X154162742Y-86277500D02*
X154637258Y-86277500D01*
X154162742Y-87322500D02*
X154637258Y-87322500D01*
%TO.C,J2*%
X130242000Y-79756000D02*
X130242000Y-138236000D01*
X130242000Y-79756000D02*
X132902000Y-79756000D01*
X130242000Y-138236000D02*
X132902000Y-138236000D01*
X131572000Y-77156000D02*
X132902000Y-77156000D01*
X132902000Y-77156000D02*
X132902000Y-78486000D01*
X132902000Y-79756000D02*
X132902000Y-138236000D01*
D12*
%TO.C,J1*%
X100010000Y-133825000D02*
X100010000Y-126625000D01*
X100370000Y-133825000D02*
X100010000Y-133825000D01*
X103150000Y-133825000D02*
X104670000Y-133825000D01*
X104670000Y-133825000D02*
X104670000Y-133620000D01*
X100010000Y-126625000D02*
X100370000Y-126625000D01*
X103150000Y-126625000D02*
X104670000Y-126625000D01*
X104670000Y-126625000D02*
X104670000Y-126830000D01*
D13*
X105860000Y-128875000D02*
G75*
G03*
X105860000Y-128875000I-100000J0D01*
G01*
D11*
%TO.C,C9*%
X177101920Y-116122000D02*
X177383080Y-116122000D01*
X177101920Y-117142000D02*
X177383080Y-117142000D01*
%TO.C,C6*%
X177101920Y-108052000D02*
X177383080Y-108052000D01*
X177101920Y-109072000D02*
X177383080Y-109072000D01*
%TO.C,R9*%
X173263641Y-119780000D02*
X172956359Y-119780000D01*
X173263641Y-119020000D02*
X172956359Y-119020000D01*
%TO.C,R2*%
X107756359Y-97420000D02*
X108063641Y-97420000D01*
X107756359Y-98180000D02*
X108063641Y-98180000D01*
%TO.C,C1*%
X111136920Y-97706000D02*
X111418080Y-97706000D01*
X111136920Y-98726000D02*
X111418080Y-98726000D01*
%TO.C,D2*%
X124510000Y-98150000D02*
X124510000Y-94850000D01*
X124510000Y-98150000D02*
X119000000Y-98150000D01*
X124510000Y-94850000D02*
X119000000Y-94850000D01*
%TO.C,J3*%
X146244000Y-79756000D02*
X146244000Y-138236000D01*
X146244000Y-79756000D02*
X148904000Y-79756000D01*
X146244000Y-138236000D02*
X148904000Y-138236000D01*
X147574000Y-77156000D02*
X148904000Y-77156000D01*
X148904000Y-77156000D02*
X148904000Y-78486000D01*
X148904000Y-79756000D02*
X148904000Y-138236000D01*
D14*
%TO.C,BT1*%
X105404000Y-52484000D02*
X184664000Y-52484000D01*
X105404000Y-73384000D02*
X105404000Y-52484000D01*
X105404000Y-73384000D02*
X184664000Y-73384000D01*
D15*
X122094000Y-62934000D02*
X117094000Y-62934000D01*
X170434000Y-60474000D02*
X170434000Y-65474000D01*
X172974000Y-62934000D02*
X167974000Y-62934000D01*
D14*
X184664000Y-73384000D02*
X184664000Y-52484000D01*
D11*
%TO.C,U3*%
X113440000Y-87336000D02*
X113440000Y-86196000D01*
X113210000Y-86196000D02*
X113440000Y-86196000D01*
X113210000Y-86196000D02*
X113210000Y-83476000D01*
X117930000Y-86196000D02*
X117700000Y-86196000D01*
X113210000Y-83476000D02*
X114520000Y-83476000D01*
X116620000Y-83476000D02*
X117930000Y-83476000D01*
X117930000Y-83476000D02*
X117930000Y-86196000D01*
%TO.C,D1*%
X119910000Y-129850000D02*
X119910000Y-126550000D01*
X119910000Y-129850000D02*
X114400000Y-129850000D01*
X119910000Y-126550000D02*
X114400000Y-126550000D01*
%TO.C,Q3*%
X112166000Y-108485500D02*
X112166000Y-106810500D01*
X112166000Y-108485500D02*
X112166000Y-109135500D01*
X109046000Y-108485500D02*
X109046000Y-107835500D01*
X109046000Y-108485500D02*
X109046000Y-109135500D01*
%TO.C,Q1*%
X113478000Y-102963500D02*
X113478000Y-104638500D01*
X113478000Y-102963500D02*
X113478000Y-102313500D01*
X116598000Y-102963500D02*
X116598000Y-103613500D01*
X116598000Y-102963500D02*
X116598000Y-102313500D01*
D10*
%TO.C,U6*%
X161250000Y-100245000D02*
X161250000Y-100450000D01*
X161250000Y-100245000D02*
X166750000Y-100245000D01*
X161250000Y-100450000D02*
X159500000Y-100450000D01*
X161250000Y-105755000D02*
X161250000Y-105455000D01*
X161250000Y-105755000D02*
X166750000Y-105755000D01*
X166750000Y-100245000D02*
X166750000Y-100545000D01*
X166750000Y-105755000D02*
X166750000Y-105455000D01*
D11*
%TO.C,U4*%
X113440000Y-80500000D02*
X113440000Y-79360000D01*
X113210000Y-79360000D02*
X113440000Y-79360000D01*
X113210000Y-79360000D02*
X113210000Y-76640000D01*
X117930000Y-79360000D02*
X117700000Y-79360000D01*
X113210000Y-76640000D02*
X114520000Y-76640000D01*
X116620000Y-76640000D02*
X117930000Y-76640000D01*
X117930000Y-76640000D02*
X117930000Y-79360000D01*
%TO.C,RL1*%
X154077500Y-89637258D02*
X154077500Y-89162742D01*
X155122500Y-89637258D02*
X155122500Y-89162742D01*
%TO.C,C7*%
X175732500Y-110467000D02*
X175732500Y-112037000D01*
X175732500Y-112037000D02*
X178042500Y-112037000D01*
X178042500Y-110467000D02*
X175732500Y-110467000D01*
D12*
%TO.C,Y1*%
X169925000Y-87180000D02*
X171525000Y-87180000D01*
X169925000Y-90620000D02*
X171525000Y-90620000D01*
D13*
X168950000Y-87700000D02*
G75*
G03*
X168950000Y-87700000I-100000J0D01*
G01*
D11*
%TO.C,R6*%
X173955641Y-107314000D02*
X173648359Y-107314000D01*
X173955641Y-106554000D02*
X173648359Y-106554000D01*
%TO.C,R8*%
X173263641Y-121530000D02*
X172956359Y-121530000D01*
X173263641Y-120770000D02*
X172956359Y-120770000D01*
D10*
%TO.C,U1*%
X158600000Y-94750000D02*
X158600000Y-92550000D01*
X162000000Y-95125000D02*
X162000000Y-92175000D01*
D11*
%TO.C,L1*%
X124354000Y-88572758D02*
X124354000Y-90243242D01*
X122534000Y-88572758D02*
X122534000Y-90243242D01*
%TO.C,C8*%
X177101920Y-113432000D02*
X177383080Y-113432000D01*
X177101920Y-114452000D02*
X177383080Y-114452000D01*
%TO.C,R3*%
X154260436Y-83865000D02*
X154714564Y-83865000D01*
X154260436Y-85335000D02*
X154714564Y-85335000D01*
D10*
%TO.C,U5*%
X163325000Y-109075000D02*
X163325000Y-109300000D01*
X163325000Y-109075000D02*
X166675000Y-109075000D01*
X163325000Y-109300000D02*
X162100000Y-109300000D01*
X163325000Y-112425000D02*
X163325000Y-112125000D01*
X163325000Y-112425000D02*
X166675000Y-112425000D01*
X166675000Y-109075000D02*
X166675000Y-109375000D01*
X166675000Y-112425000D02*
X166675000Y-112125000D01*
D11*
%TO.C,R5*%
X172959500Y-117237258D02*
X172959500Y-116762742D01*
X174004500Y-117237258D02*
X174004500Y-116762742D01*
%TD*%
%LPC*%
D16*
%TO.C,C3*%
X115520000Y-90200000D03*
X114880000Y-90200000D03*
%TD*%
D17*
%TO.C,Q2*%
X159875000Y-85550000D03*
X159875000Y-87450000D03*
X161750000Y-86500000D03*
%TD*%
D18*
%TO.C,U2*%
X109500000Y-103737500D03*
X110450000Y-103737500D03*
X111400000Y-103737500D03*
X111400000Y-101462500D03*
X110450000Y-101462500D03*
X109500000Y-101462500D03*
%TD*%
D19*
%TO.C,C4*%
X108712000Y-79825000D03*
X108712000Y-80465000D03*
%TD*%
D20*
%TO.C,R7*%
X173620000Y-122900000D03*
X172600000Y-122900000D03*
%TD*%
D21*
%TO.C,C5*%
X176467500Y-105872000D03*
X178017500Y-105872000D03*
%TD*%
D22*
%TO.C,R1*%
X112345500Y-94500000D03*
X109420500Y-94500000D03*
%TD*%
D23*
%TO.C,R4*%
X153575000Y-86800000D03*
X155225000Y-86800000D03*
%TD*%
D24*
%TO.C,J2*%
X131571999Y-78485999D03*
D25*
X131571999Y-81025999D03*
X131571999Y-83565999D03*
X131571999Y-86105999D03*
X131571999Y-88645999D03*
X131571999Y-91185999D03*
X131571999Y-93725999D03*
X131571999Y-96265999D03*
X131571999Y-98805999D03*
X131571999Y-101345999D03*
X131571999Y-103885999D03*
X131571999Y-106425999D03*
X131571999Y-108965999D03*
X131571999Y-111505999D03*
X131571999Y-114045999D03*
X131571999Y-116585999D03*
X131571999Y-119125999D03*
X131571999Y-121665999D03*
X131571999Y-124205999D03*
X131571999Y-126745999D03*
X131571999Y-129285999D03*
X131571999Y-131825999D03*
X131571999Y-134365999D03*
X131571999Y-136905999D03*
%TD*%
D26*
%TO.C,J1*%
X104384999Y-128924999D03*
X104384999Y-129574999D03*
X104384999Y-130224999D03*
X104384999Y-130874999D03*
X104384999Y-131524999D03*
D27*
X104410000Y-132650000D03*
D28*
X101759999Y-133824999D03*
D27*
X104410000Y-127800000D03*
D28*
X101759999Y-126624999D03*
%TD*%
D21*
%TO.C,C9*%
X176467500Y-116632000D03*
X178017500Y-116632000D03*
%TD*%
%TO.C,C6*%
X176467500Y-108562000D03*
X178017500Y-108562000D03*
%TD*%
D20*
%TO.C,R9*%
X173620000Y-119400000D03*
X172600000Y-119400000D03*
%TD*%
D29*
%TO.C,R2*%
X107400000Y-97800000D03*
X108420000Y-97800000D03*
%TD*%
D21*
%TO.C,C1*%
X110502500Y-98216000D03*
X112052500Y-98216000D03*
%TD*%
D30*
%TO.C,D2*%
X123000000Y-96500000D03*
X119000000Y-96500000D03*
%TD*%
D24*
%TO.C,J3*%
X147573999Y-78485999D03*
D25*
X147573999Y-81025999D03*
X147573999Y-83565999D03*
X147573999Y-86105999D03*
X147573999Y-88645999D03*
X147573999Y-91185999D03*
X147573999Y-93725999D03*
X147573999Y-96265999D03*
X147573999Y-98805999D03*
X147573999Y-101345999D03*
X147573999Y-103885999D03*
X147573999Y-106425999D03*
X147573999Y-108965999D03*
X147573999Y-111505999D03*
X147573999Y-114045999D03*
X147573999Y-116585999D03*
X147573999Y-119125999D03*
X147573999Y-121665999D03*
X147573999Y-124205999D03*
X147573999Y-126745999D03*
X147573999Y-129285999D03*
X147573999Y-131825999D03*
X147573999Y-134365999D03*
X147573999Y-136905999D03*
%TD*%
D31*
%TO.C,BT1*%
X184759000Y-62934000D03*
X105309000Y-62934000D03*
%TD*%
D32*
%TO.C,U3*%
X114069999Y-86785999D03*
D33*
X115570000Y-86698500D03*
D32*
X117069999Y-86785999D03*
%TD*%
D30*
%TO.C,D1*%
X118400000Y-128200000D03*
X114400000Y-128200000D03*
%TD*%
D34*
%TO.C,Q3*%
X111556000Y-107548000D03*
X109656000Y-107548000D03*
X110606000Y-109423000D03*
%TD*%
D35*
%TO.C,Q1*%
X114088000Y-103901000D03*
X115988000Y-103901000D03*
X115038000Y-102026000D03*
%TD*%
D36*
%TO.C,U6*%
X160349999Y-101094999D03*
X160349999Y-102364999D03*
X160349999Y-103634999D03*
X160349999Y-104904999D03*
X167649999Y-104904999D03*
X167649999Y-103634999D03*
X167649999Y-102364999D03*
X167649999Y-101094999D03*
%TD*%
D32*
%TO.C,U4*%
X114069999Y-79949999D03*
D33*
X115570000Y-79862500D03*
D32*
X117069999Y-79949999D03*
%TD*%
D37*
%TO.C,RL1*%
X154600000Y-90225000D03*
X154600000Y-88575000D03*
%TD*%
D38*
%TO.C,C7*%
X176530000Y-111252000D03*
X177955000Y-111252000D03*
%TD*%
D39*
%TO.C,Y1*%
X170062499Y-87687499D03*
D40*
X171369999Y-87687499D03*
D41*
X170724999Y-90149999D03*
%TD*%
D20*
%TO.C,R6*%
X174312000Y-106934000D03*
X173292000Y-106934000D03*
%TD*%
%TO.C,R8*%
X173620000Y-121150000D03*
X172600000Y-121150000D03*
%TD*%
D42*
%TO.C,U1*%
X161249999Y-92249999D03*
X160299999Y-92249999D03*
X159349999Y-92249999D03*
X159349999Y-95049999D03*
X160299999Y-95049999D03*
X161249999Y-95049999D03*
D43*
X160299999Y-93649999D03*
%TD*%
D44*
%TO.C,L1*%
X123444000Y-87833000D03*
X123444000Y-90983000D03*
%TD*%
D21*
%TO.C,C8*%
X176467500Y-113942000D03*
X178017500Y-113942000D03*
%TD*%
D45*
%TO.C,R3*%
X153575000Y-84600000D03*
X155400000Y-84600000D03*
%TD*%
D16*
%TO.C,C2*%
X119775000Y-93500000D03*
X119135000Y-93500000D03*
%TD*%
D46*
%TO.C,U5*%
X162799999Y-109749999D03*
X162799999Y-110249999D03*
X162799999Y-110749999D03*
X162799999Y-111249999D03*
X162799999Y-111749999D03*
X167199999Y-111749999D03*
X167199999Y-111249999D03*
X167199999Y-110749999D03*
X167199999Y-110249999D03*
X167199999Y-109749999D03*
%TD*%
D37*
%TO.C,R5*%
X173482000Y-117825000D03*
X173482000Y-116175000D03*
%TD*%
M02*
