%TF.GenerationSoftware,KiCad,Pcbnew,(7.0.0)*%
%TF.CreationDate,2023-04-14T19:10:38+02:00*%
%TF.ProjectId,Project.kicad_sch,50726f6a-6563-4742-9e6b-696361645f73,rev?*%
%TF.SameCoordinates,Original*%
%TF.FileFunction,Paste,Top*%
%TF.FilePolarity,Positive*%
%FSLAX46Y46*%
G04 Gerber Fmt 4.6, Leading zero omitted, Abs format (unit mm)*
G04 Created by KiCad (PCBNEW (7.0.0)) date 2023-04-14 19:10:38*
%MOMM*%
%LPD*%
G01*
G04 APERTURE LIST*
G04 Aperture macros list*
%AMRoundRect*
0 Rectangle with rounded corners*
0 $1 Rounding radius*
0 $2 $3 $4 $5 $6 $7 $8 $9 X,Y pos of 4 corners*
0 Add a 4 corners polygon primitive as box body*
4,1,4,$2,$3,$4,$5,$6,$7,$8,$9,$2,$3,0*
0 Add four circle primitives for the rounded corners*
1,1,$1+$1,$2,$3*
1,1,$1+$1,$4,$5*
1,1,$1+$1,$6,$7*
1,1,$1+$1,$8,$9*
0 Add four rect primitives between the rounded corners*
20,1,$1+$1,$2,$3,$4,$5,0*
20,1,$1+$1,$4,$5,$6,$7,0*
20,1,$1+$1,$6,$7,$8,$9,0*
20,1,$1+$1,$8,$9,$2,$3,0*%
%AMFreePoly0*
4,1,9,3.862500,-0.866500,0.737500,-0.866500,0.737500,-0.450000,-0.737500,-0.450000,-0.737500,0.450000,0.737500,0.450000,0.737500,0.866500,3.862500,0.866500,3.862500,-0.866500,3.862500,-0.866500,$1*%
G04 Aperture macros list end*
%ADD10RoundRect,0.079500X0.079500X0.100500X-0.079500X0.100500X-0.079500X-0.100500X0.079500X-0.100500X0*%
%ADD11RoundRect,0.150000X-0.587500X-0.150000X0.587500X-0.150000X0.587500X0.150000X-0.587500X0.150000X0*%
%ADD12RoundRect,0.150000X0.150000X-0.512500X0.150000X0.512500X-0.150000X0.512500X-0.150000X-0.512500X0*%
%ADD13RoundRect,0.079500X-0.100500X0.079500X-0.100500X-0.079500X0.100500X-0.079500X0.100500X0.079500X0*%
%ADD14RoundRect,0.135000X0.135000X0.185000X-0.135000X0.185000X-0.135000X-0.185000X0.135000X-0.185000X0*%
%ADD15RoundRect,0.225000X-0.225000X-0.250000X0.225000X-0.250000X0.225000X0.250000X-0.225000X0.250000X0*%
%ADD16RoundRect,0.250000X0.312500X0.625000X-0.312500X0.625000X-0.312500X-0.625000X0.312500X-0.625000X0*%
%ADD17RoundRect,0.200000X-0.200000X-0.275000X0.200000X-0.275000X0.200000X0.275000X-0.200000X0.275000X0*%
%ADD18R,1.250000X0.400000*%
%ADD19RoundRect,0.135000X-0.135000X-0.185000X0.135000X-0.185000X0.135000X0.185000X-0.135000X0.185000X0*%
%ADD20RoundRect,0.250000X1.000000X0.650000X-1.000000X0.650000X-1.000000X-0.650000X1.000000X-0.650000X0*%
%ADD21RoundRect,0.735000X-3.150000X-2.940000X3.150000X-2.940000X3.150000X2.940000X-3.150000X2.940000X0*%
%ADD22R,0.900000X1.300000*%
%ADD23FreePoly0,90.000000*%
%ADD24RoundRect,0.150000X-0.150000X0.587500X-0.150000X-0.587500X0.150000X-0.587500X0.150000X0.587500X0*%
%ADD25RoundRect,0.150000X0.150000X-0.587500X0.150000X0.587500X-0.150000X0.587500X-0.150000X-0.587500X0*%
%ADD26R,1.700000X0.650000*%
%ADD27RoundRect,0.200000X0.275000X-0.200000X0.275000X0.200000X-0.275000X0.200000X-0.275000X-0.200000X0*%
%ADD28RoundRect,0.250000X-0.287500X-0.275000X0.287500X-0.275000X0.287500X0.275000X-0.287500X0.275000X0*%
%ADD29R,0.675000X0.575000*%
%ADD30R,0.710000X0.575000*%
%ADD31R,2.225000X0.550000*%
%ADD32R,0.400000X0.600000*%
%ADD33R,2.400000X1.500000*%
%ADD34RoundRect,0.250000X-0.700000X0.275000X-0.700000X-0.275000X0.700000X-0.275000X0.700000X0.275000X0*%
%ADD35RoundRect,0.250000X-0.262500X-0.450000X0.262500X-0.450000X0.262500X0.450000X-0.262500X0.450000X0*%
%ADD36R,1.400000X0.300000*%
G04 APERTURE END LIST*
D10*
%TO.C,C3*%
X115545000Y-90200000D03*
X114855000Y-90200000D03*
%TD*%
D11*
%TO.C,Q2*%
X159875000Y-85550000D03*
X159875000Y-87450000D03*
X161750000Y-86500000D03*
%TD*%
D12*
%TO.C,U2*%
X109500000Y-103737500D03*
X110450000Y-103737500D03*
X111400000Y-103737500D03*
X111400000Y-101462500D03*
X110450000Y-101462500D03*
X109500000Y-101462500D03*
%TD*%
D13*
%TO.C,C4*%
X108712000Y-79800000D03*
X108712000Y-80490000D03*
%TD*%
D14*
%TO.C,R7*%
X173620000Y-122900000D03*
X172600000Y-122900000D03*
%TD*%
D15*
%TO.C,C5*%
X176467500Y-105872000D03*
X178017500Y-105872000D03*
%TD*%
D16*
%TO.C,R1*%
X112345500Y-94500000D03*
X109420500Y-94500000D03*
%TD*%
D17*
%TO.C,R4*%
X153575000Y-86800000D03*
X155225000Y-86800000D03*
%TD*%
D18*
%TO.C,J1*%
X104384999Y-128924999D03*
X104384999Y-129574999D03*
X104384999Y-130224999D03*
X104384999Y-130874999D03*
X104384999Y-131524999D03*
%TD*%
D15*
%TO.C,C9*%
X176467500Y-116632000D03*
X178017500Y-116632000D03*
%TD*%
%TO.C,C6*%
X176467500Y-108562000D03*
X178017500Y-108562000D03*
%TD*%
D14*
%TO.C,R9*%
X173620000Y-119400000D03*
X172600000Y-119400000D03*
%TD*%
D19*
%TO.C,R2*%
X107400000Y-97800000D03*
X108420000Y-97800000D03*
%TD*%
D15*
%TO.C,C1*%
X110502500Y-98216000D03*
X112052500Y-98216000D03*
%TD*%
D20*
%TO.C,D2*%
X123000000Y-96500000D03*
X119000000Y-96500000D03*
%TD*%
D21*
%TO.C,BT1*%
X184759000Y-62934000D03*
X105309000Y-62934000D03*
%TD*%
D22*
%TO.C,U3*%
X114069999Y-86785999D03*
D23*
X115570000Y-86698500D03*
D22*
X117069999Y-86785999D03*
%TD*%
D20*
%TO.C,D1*%
X118400000Y-128200000D03*
X114400000Y-128200000D03*
%TD*%
D24*
%TO.C,Q3*%
X111556000Y-107548000D03*
X109656000Y-107548000D03*
X110606000Y-109423000D03*
%TD*%
D25*
%TO.C,Q1*%
X114088000Y-103901000D03*
X115988000Y-103901000D03*
X115038000Y-102026000D03*
%TD*%
D26*
%TO.C,U6*%
X160349999Y-101094999D03*
X160349999Y-102364999D03*
X160349999Y-103634999D03*
X160349999Y-104904999D03*
X167649999Y-104904999D03*
X167649999Y-103634999D03*
X167649999Y-102364999D03*
X167649999Y-101094999D03*
%TD*%
D22*
%TO.C,U4*%
X114069999Y-79949999D03*
D23*
X115570000Y-79862500D03*
D22*
X117069999Y-79949999D03*
%TD*%
D27*
%TO.C,RL1*%
X154600000Y-90225000D03*
X154600000Y-88575000D03*
%TD*%
D28*
%TO.C,C7*%
X176530000Y-111252000D03*
X177955000Y-111252000D03*
%TD*%
D29*
%TO.C,Y1*%
X170062499Y-87687499D03*
D30*
X171369999Y-87687499D03*
D31*
X170724999Y-90149999D03*
%TD*%
D14*
%TO.C,R6*%
X174312000Y-106934000D03*
X173292000Y-106934000D03*
%TD*%
%TO.C,R8*%
X173620000Y-121150000D03*
X172600000Y-121150000D03*
%TD*%
D32*
%TO.C,U1*%
X161249999Y-92249999D03*
X160299999Y-92249999D03*
X159349999Y-92249999D03*
X159349999Y-95049999D03*
X160299999Y-95049999D03*
X161249999Y-95049999D03*
D33*
X160299999Y-93649999D03*
%TD*%
D34*
%TO.C,L1*%
X123444000Y-87833000D03*
X123444000Y-90983000D03*
%TD*%
D15*
%TO.C,C8*%
X176467500Y-113942000D03*
X178017500Y-113942000D03*
%TD*%
D35*
%TO.C,R3*%
X153575000Y-84600000D03*
X155400000Y-84600000D03*
%TD*%
D10*
%TO.C,C2*%
X119800000Y-93500000D03*
X119110000Y-93500000D03*
%TD*%
D36*
%TO.C,U5*%
X162799999Y-109749999D03*
X162799999Y-110249999D03*
X162799999Y-110749999D03*
X162799999Y-111249999D03*
X162799999Y-111749999D03*
X167199999Y-111749999D03*
X167199999Y-111249999D03*
X167199999Y-110749999D03*
X167199999Y-110249999D03*
X167199999Y-109749999D03*
%TD*%
D27*
%TO.C,R5*%
X173482000Y-117825000D03*
X173482000Y-116175000D03*
%TD*%
M02*
